<?xml version="1.0" encoding="utf-8"?>
<svg viewBox="0 0 1071 589" xmlns="http://www.w3.org/2000/svg">
  <g transform="matrix(1.1625, 0, 0, 1.1625, -105.061165, -1115.391724)">
    <ellipse style="fill: rgb(128, 233, 96); stroke-width: 5px; stroke: rgb(79, 176, 27);" cx="610.81" cy="1123.854" rx="80" ry="79.743"/>
    <g transform="matrix(0.239957, 0, 0, 0.239957, 525.044006, 1044.106079)">
      <path fill="#FFFFFF" d="M249.536,286.674c-26.011-6.076-43.575-21.717-52.689-46.922c-1.781,10.802-2.672,24.53-2.672,41.183 c0,31.506,1.997,53.223,6.001,65.151c7.558,22.054,23.789,34.544,48.694,37.47L249.536,286.674z M249.536,507.442 c-23.47-2.476-41.924-13.39-55.361-32.744v25.993c0,18.453,9.339,27.68,28.027,27.68 C237.692,528.371,246.807,521.396,249.536,507.442z M386.925,378.492h-80.557c-19.86-0.226-34.076,4.557-42.655,14.347v41.014 h87.673C354.322,409.773,366.165,391.319,386.925,378.492z M414.605,105.738c-16.878-5.401-34.216-8.102-51.985-8.102 c-12.152,0-24.089,1.35-35.782,4.051c-8.327,7.652-16.663,15.308-24.98,22.955c-8.561,9.677-12.828,19.804-12.828,30.381 c0,6.531,1.35,13.84,4.051,21.942c18.903-14.853,40.508-22.837,64.813-23.967C367.796,126.667,386.7,110.918,414.605,105.738z M530.382,284.986c0-29.706-2.231-51.31-6.714-64.813c-8.083-23.629-24.099-35.444-48.084-35.444 c-8.965,0-18.492,2.025-28.572,6.076c15.688,17.554,24.877,38.145,27.568,61.774C498.332,254.385,516.936,265.182,530.382,284.986z M530.382,422.713c0-17.553-4.688-32.406-14.084-44.559c-10.071-12.827-23.705-20.254-40.931-22.279v75.952 c24.596,3.601,42.938,16.316,55.015,38.146V422.713z" style=""/>
      <path fill="#ED1C24" d="M544.56,498.666c0,11.927-3.919,21.829-11.759,29.705c-7.857,7.877-17.703,11.815-29.593,11.815 c-28.019,0-42.027-19.917-42.027-59.749c0-4.051,0-9.79,0-17.217c0-7.426,0-12.602,0-15.527H263.704c0,3.15,0,8.607,0,16.372 c0,7.764,0,13.784,0,18.06c0,40.058-13.896,60.087-41.68,60.087c-11.787,0-21.567-3.938-29.34-11.815 C184.892,522.521,181,512.618,181,500.691V265.745c0-50.18,17.778-93.051,53.336-128.613 c35.557-35.558,78.315-53.336,128.275-53.336c50.185,0,93.056,17.778,128.613,53.336c35.557,35.562,53.335,78.433,53.335,128.613 V498.666z M249.526,286.674c-26.012-6.076-43.574-21.717-52.688-46.922c-1.782,10.802-2.673,24.53-2.673,41.183 c0,31.506,2.007,53.223,6.001,65.151c7.558,22.054,23.799,34.544,48.704,37.47L249.526,286.674z M249.526,507.442 c-23.461-2.476-41.915-13.39-55.361-32.744v25.993c0,18.453,9.34,27.68,28.027,27.68 C237.683,528.371,246.798,521.396,249.526,507.442z M461.181,364.651v-98.907c0-27.901-10.184-51.362-30.55-70.383 c-20.367-19.016-44.503-28.524-72.408-28.524c-26.555,0-48.947,9.79-67.176,29.369c-18.229,19.579-27.343,42.758-27.343,69.539 v98.907H461.181z M386.916,378.492h-80.557c-19.86-0.226-34.076,4.557-42.655,14.347v41.014h87.674 C354.313,409.773,366.155,391.319,386.916,378.492z M414.597,105.738c-16.879-5.401-34.207-8.102-51.985-8.102 c-12.152,0-24.08,1.35-35.782,4.051c-8.327,7.652-16.653,15.308-24.98,22.955c-8.552,9.677-12.828,19.804-12.828,30.381 c0,6.531,1.351,13.84,4.051,21.942c18.904-14.853,40.508-22.837,64.813-23.967C367.787,126.667,386.691,110.918,414.597,105.738z M530.382,284.986c0-29.706-2.231-51.31-6.714-64.813c-8.083-23.629-24.099-35.444-48.084-35.444 c-8.965,0-18.492,2.025-28.581,6.076c15.696,17.554,24.886,38.145,27.567,61.774C498.332,254.385,516.936,265.182,530.382,284.986z M530.382,422.713c0-17.553-4.688-32.406-14.084-44.559c-10.071-12.827-23.714-20.254-40.939-22.279v75.952 c24.604,3.601,42.946,16.316,55.023,38.146V422.713z" style=""/>
    </g>
  </g>
  <g transform="matrix(0.975, 0, 0, 0.975, 1186.614746, -806.87561)">
    <ellipse style="stroke-width: 5px; fill: rgb(255, 181, 85); stroke: rgb(233, 97, 0);" cx="-289.327" cy="1056.69" rx="80" ry="79.743"/>
    <g transform="matrix(0.209406, 0, 0, 0.209406, -361.725189, 994.812805)">
      <path fill="#ED1C24" d="M566.991,100.374c0,12.956-4.286,23.703-12.839,32.255c-8.573,8.558-19.335,12.829-32.296,12.829H278.162 v99.697h126.362c12.972,0,23.743,4.276,32.316,12.829c8.573,8.558,12.859,19.304,12.859,32.255 c0,12.956-4.286,23.702-12.859,32.255s-19.345,12.828-32.316,12.828H278.162v176.304c0,11.974-4.449,22.48-13.328,31.521 c-8.878,9.042-19.406,13.562-31.573,13.562c-11.923,0-22.328-4.52-31.207-13.562c-8.888-9.041-13.328-19.548-13.328-31.521V100.374 c0-11.969,4.449-22.48,13.378-31.522c8.919-9.036,19.365-13.562,31.339-13.562h288.462c12.951,0,23.692,4.276,32.255,12.829 C562.715,76.677,566.991,87.423,566.991,100.374z"/>
      <path fill="#FFFFFF" d="M262.768,519.323v-89.068c-24.874-2.933-44.544-14.783-59.022-35.554c-0.244,3.421-0.611,10.874-1.1,22.358 c-0.234,9.774-0.356,17.594-0.356,23.458c0,54.003,19.559,80.271,58.666,78.806H262.768z"/>
      <path fill="#FFFFFF" d="M262.768,227.195c-24.466-2.688-44.015-14.295-58.646-34.821v51.315c0,13.44,6.557,26.268,19.671,38.486 c12.391,11.241,25.372,17.96,38.975,20.16V227.195z"/>
      <path fill="#FFFFFF" d="M340.473,70.318h-81.004c-7.331,11.49-10.996,24.069-10.996,37.753c0,16.372,4.999,31.033,15.028,43.984 c0-15.634,4.632-23.458,13.928-23.458c1.7,0,5.804,0.311,12.279,0.917c6.465,0.611,12.146,0.916,17.044,0.916 C308.707,105.266,319.947,85.224,340.473,70.318z"/>
      <path fill="#FFFFFF" d="M434.306,290.239c0-20.032-9.988-30.056-29.964-30.056c-49.686,0-77.817,20.037-84.395,60.112h84.395 C424.317,320.295,434.306,310.276,434.306,290.239z"/>
      <path fill="#FFFFFF" d="M551.597,100.374c0-20.032-9.988-30.056-29.944-30.056c-18.021,0-33.843,5.559-47.486,16.677 c-13.633,11.124-21.422,25.601-23.366,43.434h70.853C541.608,130.43,551.597,120.411,551.597,100.374z"/>
    </g>
  </g>
  <g transform="matrix(1.175, 0, 0, 1.175, -380.413147, -734.925049)">
    <ellipse style="stroke-width: 5px; stroke: rgb(219, 206, 29); fill: rgb(241, 241, 84);" cx="963.646" cy="1000.743" rx="80" ry="79.743"/>
    <g transform="matrix(0.257348, 0, 0, 0.257348, 868.046631, 921.386658)">
      <g>
        <path fill="#ED1C24" d="M525.773,440.979c-15.205,23.747-35.932,42.807-62.178,57.18c-26.246,14.372-53.638,21.559-82.175,21.559 c-53.742,0-98.423-22.704-134.042-68.114c-32.703-42.077-49.055-90.716-49.055-145.916c0-54.159,16.768-102.485,50.305-144.979 c36.244-45.618,80.717-68.427,133.417-68.427c25.621,0,56.137,10.207,91.548,30.621c39.369,22.705,59.055,45.826,59.055,69.364 c0,10.207-4.114,18.956-12.342,26.246c-8.229,7.295-17.55,10.936-27.965,10.936c-8.749,0-18.539-5.312-29.371-15.935 c-17.497-17.497-28.017-27.6-31.558-30.308c-14.79-10.624-31.245-15.935-49.368-15.935c-32.287,0-58.845,15.519-79.675,46.556 c-18.331,27.496-27.496,58.225-27.496,92.174c0,34.161,9.27,64.886,27.808,92.174c20.831,31.037,47.389,46.556,79.676,46.556 c17.289,0,33.432-5.521,48.43-16.561c2.916-2.083,13.956-12.29,33.12-30.62c11.457-11.04,21.56-16.561,30.309-16.561 c9.789,0,18.694,3.958,26.714,11.874c8.021,7.915,12.03,16.769,12.03,26.559C532.961,426.086,530.564,433.272,525.773,440.979z"/>
      </g>
      <g>
        <path fill="#FFFFFF" d="M270.812,363.179h-10.936c-17.081,0.833-32.495-6.665-46.243-22.497 c3.125,21.039,8.957,41.036,17.498,59.992l1.25-0.313c0.833,0,6.77,4.843,17.81,14.528c11.04,9.687,21.872,14.529,32.496,14.529 c7.707,0,15.831-1.962,24.371-5.901C290.601,407.131,278.519,387.021,270.812,363.179z M263.313,177.269 c0-6.874,1.042-13.54,3.125-19.997c-15.414,16.873-27.809,36.453-37.182,58.741c1.041,0.833,1.562,9.169,1.562,24.997 c0,22.08,10.728,37.182,32.183,45.306c2.499-23.326,8.957-44.681,19.372-64.053C269.666,209.764,263.313,194.767,263.313,177.269z M420.478,449.416c-12.29,5.207-24.893,7.812-37.807,7.812c-2.708,10.623-10.416,19.788-23.122,27.496 c-11.457,6.874-23.018,10.519-34.683,10.936c18.331,7.707,37.286,11.561,56.867,11.561c9.374,0,18.435-5.52,27.183-16.56 c8.124-10.415,12.186-20.518,12.186-30.309C421.102,457.645,420.894,453.999,420.478,449.416z M383.295,104.78 c-9.582,0-18.591,5.42-27.027,16.248c-8.436,10.832-12.655,21.143-12.655,30.933c0,2.295,0.209,5.833,0.625,10.624 c11.04-4.579,22.185-7.187,33.433-7.812c8.749-24.163,26.142-38.323,52.18-42.494C414.437,107.279,398.918,104.78,383.295,104.78z M505.343,170.083c-8.185-4.578-17.323-6.874-27.4-6.874c-13.444,0-25.204,4.27-35.281,12.811 c7.977,8.124,16.065,16.355,24.25,24.684c11.344,11.044,20.37,16.56,27.097,16.56c6.718,0,12.75-2.547,18.105-7.655 c5.354-5.103,8.037-10.884,8.037-17.341C520.15,183.102,515.211,175.707,505.343,170.083z M511.87,401.767 c-5.521-4.895-11.718-7.343-18.591-7.343c-6.458,0-12.082,2.292-16.873,6.875c11.665,12.289,17.498,26.975,17.498,44.056 c0,5.415-0.729,10.728-2.188,15.935c18.955-18.33,28.434-32.287,28.434-41.868C520.15,412.547,517.39,406.662,511.87,401.767z"/>
      </g>
    </g>
  </g>
  <g transform="matrix(1.2, 0, 0, 1.2, -222.356384, -1065.289062)">
    <ellipse style="fill: rgb(128, 233, 96); stroke-width: 5px; stroke: rgb(79, 176, 27);" cx="423.816" cy="985.192" rx="80" ry="79.743"/>
    <g transform="matrix(0.396078, 0, 0, 0.393284, 240.746658, 846.440186)" style="">
      <path fill="#ED1C24" d="M642.457,354.2c0,4.185-1.382,7.654-4.145,10.421c-2.763,2.763-6.236,4.145-10.421,4.145h-88.458 c-4.184,0-7.638-1.382-10.361-4.145c-2.724-2.767-4.085-6.236-4.085-10.421c0-4.188,1.361-7.657,4.085-10.421 c2.724-2.766,6.178-4.145,10.361-4.145h88.458c4.185,0,7.658,1.379,10.421,4.145C641.075,346.543,642.457,350.013,642.457,354.2z"/>
      <g>
        <path fill="#FFFFFF" d="M542.157,363.91c-0.789-7.029-4.184-12.434-10.184-16.223c-0.71,1.733-1.065,3.71-1.065,5.921 c0,4.575,1.895,8.01,5.684,10.302H542.157z"/>
        <path fill="#FFFFFF" d="M598.169,363.91c-0.553-4.578-2.605-8.881-6.157-12.907c-3.869-4.342-8.053-6.513-12.553-6.513h-14.921 c6.632,4.813,10.342,11.289,11.132,19.42H598.169z"/>
        <path fill="#FFFFFF" d="M637.483,354.2c0-6.474-3.22-9.71-9.654-9.71h-10.832c6.592,4.813,10.243,11.289,10.95,19.42 C634.306,363.832,637.483,360.595,637.483,354.2z"/>
      </g>
    </g>
    <g transform="matrix(0.191965, 0, 0, 0.191965, 336.236145, 921.83783)">
      <path fill="#FFFFFF" d="M249.536,286.674c-26.011-6.076-43.575-21.717-52.689-46.922c-1.781,10.802-2.672,24.53-2.672,41.183 c0,31.506,1.997,53.223,6.001,65.151c7.558,22.054,23.789,34.544,48.694,37.47L249.536,286.674z M249.536,507.442 c-23.47-2.476-41.924-13.39-55.361-32.744v25.993c0,18.453,9.339,27.68,28.027,27.68 C237.692,528.371,246.807,521.396,249.536,507.442z M386.925,378.492h-80.557c-19.86-0.226-34.076,4.557-42.655,14.347v41.014 h87.673C354.322,409.773,366.165,391.319,386.925,378.492z M414.605,105.738c-16.878-5.401-34.216-8.102-51.985-8.102 c-12.152,0-24.089,1.35-35.782,4.051c-8.327,7.652-16.663,15.308-24.98,22.955c-8.561,9.677-12.828,19.804-12.828,30.381 c0,6.531,1.35,13.84,4.051,21.942c18.903-14.853,40.508-22.837,64.813-23.967C367.796,126.667,386.7,110.918,414.605,105.738z M530.382,284.986c0-29.706-2.231-51.31-6.714-64.813c-8.083-23.629-24.099-35.444-48.084-35.444 c-8.965,0-18.492,2.025-28.572,6.076c15.688,17.554,24.877,38.145,27.568,61.774C498.332,254.385,516.936,265.182,530.382,284.986z M530.382,422.713c0-17.553-4.688-32.406-14.084-44.559c-10.071-12.827-23.705-20.254-40.931-22.279v75.952 c24.596,3.601,42.938,16.316,55.015,38.146V422.713z"/>
      <path fill="#ED1C24" d="M544.56,498.666c0,11.927-3.919,21.829-11.759,29.705c-7.857,7.877-17.703,11.815-29.593,11.815 c-28.019,0-42.027-19.917-42.027-59.749c0-4.051,0-9.79,0-17.217c0-7.426,0-12.602,0-15.527H263.704c0,3.15,0,8.607,0,16.372 c0,7.764,0,13.784,0,18.06c0,40.058-13.896,60.087-41.68,60.087c-11.787,0-21.567-3.938-29.34-11.815 C184.892,522.521,181,512.618,181,500.691V265.745c0-50.18,17.778-93.051,53.336-128.613 c35.557-35.558,78.315-53.336,128.275-53.336c50.185,0,93.056,17.778,128.613,53.336c35.557,35.562,53.335,78.433,53.335,128.613 V498.666z M249.526,286.674c-26.012-6.076-43.574-21.717-52.688-46.922c-1.782,10.802-2.673,24.53-2.673,41.183 c0,31.506,2.007,53.223,6.001,65.151c7.558,22.054,23.799,34.544,48.704,37.47L249.526,286.674z M249.526,507.442 c-23.461-2.476-41.915-13.39-55.361-32.744v25.993c0,18.453,9.34,27.68,28.027,27.68 C237.683,528.371,246.798,521.396,249.526,507.442z M461.181,364.651v-98.907c0-27.901-10.184-51.362-30.55-70.383 c-20.367-19.016-44.503-28.524-72.408-28.524c-26.555,0-48.947,9.79-67.176,29.369c-18.229,19.579-27.343,42.758-27.343,69.539 v98.907H461.181z M386.916,378.492h-80.557c-19.86-0.226-34.076,4.557-42.655,14.347v41.014h87.674 C354.313,409.773,366.155,391.319,386.916,378.492z M414.597,105.738c-16.879-5.401-34.207-8.102-51.985-8.102 c-12.152,0-24.08,1.35-35.782,4.051c-8.327,7.652-16.653,15.308-24.98,22.955c-8.552,9.677-12.828,19.804-12.828,30.381 c0,6.531,1.351,13.84,4.051,21.942c18.904-14.853,40.508-22.837,64.813-23.967C367.787,126.667,386.691,110.918,414.597,105.738z M530.382,284.986c0-29.706-2.231-51.31-6.714-64.813c-8.083-23.629-24.099-35.444-48.084-35.444 c-8.965,0-18.492,2.025-28.581,6.076c15.696,17.554,24.886,38.145,27.567,61.774C498.332,254.385,516.936,265.182,530.382,284.986z M530.382,422.713c0-17.553-4.688-32.406-14.084-44.559c-10.071-12.827-23.714-20.254-40.939-22.279v75.952 c24.604,3.601,42.946,16.316,55.023,38.146V422.713z"/>
    </g>
    <g transform="matrix(0, 0.393284, -0.396078, 0, 612.231873, 756.345398)" style="">
      <path fill="#ED1C24" d="M642.457,354.2c0,4.185-1.382,7.654-4.145,10.421c-2.763,2.763-6.236,4.145-10.421,4.145h-88.458 c-4.184,0-7.638-1.382-10.361-4.145c-2.724-2.767-4.085-6.236-4.085-10.421c0-4.188,1.361-7.657,4.085-10.421 c2.724-2.766,6.178-4.145,10.361-4.145h88.458c4.185,0,7.658,1.379,10.421,4.145C641.075,346.543,642.457,350.013,642.457,354.2z"/>
      <g>
        <path fill="#FFFFFF" d="M542.157,363.91c-0.789-7.029-4.184-12.434-10.184-16.223c-0.71,1.733-1.065,3.71-1.065,5.921 c0,4.575,1.895,8.01,5.684,10.302H542.157z"/>
        <path fill="#FFFFFF" d="M598.169,363.91c-0.553-4.578-2.605-8.881-6.157-12.907c-3.869-4.342-8.053-6.513-12.553-6.513h-14.921 c6.632,4.813,10.342,11.289,11.132,19.42H598.169z"/>
        <path fill="#FFFFFF" d="M637.483,354.2c0-6.474-3.22-9.71-9.654-9.71h-10.832c6.592,4.813,10.243,11.289,10.95,19.42 C634.306,363.832,637.483,360.595,637.483,354.2z"/>
      </g>
    </g>
  </g>
  <g transform="matrix(0.975, 0, 0, 0.975, -295.212677, -687.345642)">
    <ellipse style="fill: rgb(128, 233, 96); stroke-width: 5px; stroke: rgb(79, 176, 27);" cx="467.815" cy="1065.856" rx="80" ry="79.743"/>
    <g transform="matrix(0.252917, 0, 0, 0.252917, 380.726318, 984.281433)">
      <path fill="#FFFFFF" d="M258.056,298.517v-71.411c-21.757-1.723-38.99-11.52-51.7-29.404v42.653 c0,14.863,4.955,27.95,14.864,39.259S243.407,297.224,258.056,298.517z M258.056,456.524v-60.102 c-21.757-1.723-38.99-11.524-51.7-29.404v69.149C216.911,449.954,234.145,456.74,258.056,456.524z M375.673,113.043h-43.945 c-15.51,0-28.973,4.847-40.391,14.541c-11.417,9.693-17.987,22.084-19.71,37.159h73.672 C347.238,142.986,357.362,125.757,375.673,113.043z M359.517,265.558c-19.818-0.861-31.882-1.292-36.19-1.292 c-31.451,0-47.176,9.047-47.176,27.142c0,17.233,8.617,25.85,25.85,25.85C334.744,317.258,353.916,300.024,359.517,265.558z M375.35,469.772h-66.24c-1.508,21.542-11.74,38.774-30.697,51.7h51.377c10.986,0,21.219-6.032,30.697-18.096 C369.533,492.391,374.488,481.189,375.35,469.772z M503.307,218.059c-15.51-23.696-32.42-35.544-50.73-35.544 c-3.877,0-7.862,0.436-11.955,1.293c7.324,9.263,10.986,19.71,10.986,31.343c0,11.417-2.263,20.896-6.786,28.435 c1.938,5.816,2.908,12.602,2.908,20.357c0,17.018-6.678,33.604-20.034,49.761c21.542-5.816,39.367-17.61,53.478-35.382 C495.282,260.549,502.66,240.462,503.307,218.059z M516.878,333.737c-9.048-17.233-19.818-30.266-32.313-39.099 c-11.632,12.279-25.312,21.542-41.036,27.789l6.462,4.523c7.54-3.877,16.803-5.816,27.789-5.816 C488.981,321.135,502.014,325.336,516.878,333.737z M507.185,452.324c0-17.88-8.832-33.82-26.497-47.823 c-2.153,14.218-7.862,26.927-17.125,38.129c2.585,5.386,3.877,12.925,3.877,22.618c0,16.372-6.462,32.637-19.387,48.792 c14.217-5.17,32.205-17.664,53.961-37.481C505.461,466.003,507.185,457.925,507.185,452.324z"/>
      <path fill="#ED1C24" d="M546.282,393.516c0,38.99-13.786,72.271-41.36,99.845c-27.572,27.573-60.854,41.36-99.845,41.36H232.206 c-10.34,0-19.441-3.932-27.304-11.795c-7.862-7.862-11.794-16.963-11.794-27.304V138.893c0-10.34,3.932-19.437,11.794-27.304 c7.863-7.862,16.964-11.794,27.304-11.794h168.994c31.666,0,58.809,11.363,81.428,34.09c22.619,22.731,33.928,49.815,33.928,81.266 c0,25.635-7.647,48.684-22.941,69.148c15.294,10.771,28.004,26.928,38.129,48.469C541.436,353.447,546.282,373.697,546.282,393.516 z M258.056,298.517v-71.411c-21.757-1.723-38.99-11.52-51.7-29.404v42.653c0,14.863,4.955,27.95,14.864,39.259 S243.407,297.224,258.056,298.517z M258.056,456.524v-60.102c-21.757-1.723-38.99-11.524-51.7-29.404v69.149 C216.911,449.954,234.145,456.74,258.056,456.524z M438.359,215.15c0-9.904-3.662-18.58-10.986-26.012 c-7.324-7.432-16.049-11.147-26.174-11.147H271.304v87.566c8.401-9.693,25.204-14.54,50.407-14.54 c6.678,0,16.695,0.377,30.051,1.131c13.355,0.754,23.265,1.131,29.728,1.131C419.402,253.279,438.359,240.569,438.359,215.15z M468.409,388.021c0-26.927-14.756-46.853-44.268-59.777L302,330.506c-12.925,0.215-23.158-4.523-30.697-14.218v140.236h133.773 c18.956,0,34.358-6.786,46.206-20.356C462.701,423.242,468.409,407.194,468.409,388.021z M375.673,113.043h-43.945 c-15.51,0-28.973,4.847-40.391,14.541c-11.417,9.693-17.987,22.084-19.71,37.159h73.672 C347.238,142.986,357.362,125.757,375.673,113.043z M359.517,265.558c-19.818-0.861-31.882-1.292-36.19-1.292 c-31.451,0-47.176,9.047-47.176,27.142c0,17.233,8.617,25.85,25.85,25.85C334.744,317.258,353.916,300.024,359.517,265.558z M375.35,469.772h-66.24c-1.508,21.542-11.74,38.774-30.697,51.7h51.377c10.986,0,21.219-6.032,30.697-18.096 C369.533,492.391,374.488,481.189,375.35,469.772z M503.307,218.059c-15.51-23.696-32.42-35.544-50.73-35.544 c-3.877,0-7.862,0.436-11.955,1.293c7.324,9.263,10.986,19.71,10.986,31.343c0,11.417-2.263,20.896-6.786,28.435 c1.938,5.816,2.908,12.602,2.908,20.357c0,17.018-6.678,33.604-20.034,49.761c21.542-5.816,39.367-17.61,53.478-35.382 C495.282,260.549,502.66,240.462,503.307,218.059z M516.878,333.737c-9.048-17.233-19.818-30.266-32.313-39.099 c-11.632,12.279-25.312,21.542-41.036,27.789l6.462,4.523c7.54-3.877,16.803-5.816,27.789-5.816 C488.981,321.135,502.014,325.336,516.878,333.737z M507.185,452.324c0-17.88-8.832-33.82-26.497-47.823 c-2.153,14.218-7.862,26.927-17.125,38.129c2.585,5.386,3.877,12.925,3.877,22.618c0,16.372-6.462,32.637-19.387,48.792 c14.217-5.17,32.205-17.664,53.961-37.481C505.461,466.003,507.185,457.925,507.185,452.324z"/>
    </g>
  </g>
  <g transform="matrix(1.26875, 0, 0, 1.26875, -1019.716797, -1402.193359)">
    <ellipse style="stroke-width: 5px; fill: rgb(255, 181, 85); stroke: rgb(233, 97, 0);" cx="1132.071" cy="1459.195" rx="80" ry="79.743"/>
    <g transform="matrix(0.247653, 0, 0, 0.247653, 1042.429321, 1379.129028)">
      <g>
        <path fill="#FFFFFF" d="M414.258,490.601h-0.308H414.258z"/>
        <path fill="#FFFFFF" d="M316.838,123.364h-54.414c-14.142,0-22.442,7.276-24.901,21.827c0.615,1.435,0.922,4.104,0.922,7.993 c0,13.732,4.816,25.978,14.449,36.737s21.212,17.063,34.739,18.907c0-23.774,0.922-39.551,2.767-47.343 C294.089,145.913,302.901,133.202,316.838,123.364z"/>
        <path fill="#FFFFFF" d="M287.633,359.467v-62.715c-21.52-2.459-38.224-12.912-50.11-31.357v30.743l0.308,7.993 c1.024,13.946,6.251,26.182,15.679,36.737C262.937,351.432,274.311,357.622,287.633,359.467z"/>
        <path fill="#FFFFFF" d="M287.633,492.89v-45.807c-21.52-2.655-38.224-13.108-50.11-31.357v31.05c0,0.82,0.153,2.109,0.461,3.843 c0.308,1.742,0.461,3.126,0.461,4.15c0,12.912,4.15,24.552,12.451,34.893c8.3,10.351,18.599,17.173,30.896,20.444 C285.686,505.605,287.633,499.857,287.633,492.89z"/>
        <path fill="#FFFFFF" d="M418.596,460.609l-0.308-6.148c-16.19,7.584-33.304,11.888-51.34,12.912 c-9.428,24.594-27.258,39.248-53.492,43.962c4.714,4.509,10.862,6.764,18.446,6.764h25.208c17.421,0,32.075-5.115,43.962-15.372 C413.779,491.66,419.62,477.629,418.596,460.609z"/>
        <path fill="#FFFFFF" d="M357.726,186.387c-0.41,0-0.82,0-1.229,0H357.726z"/>
        <path fill="#FFFFFF" d="M481.003,167.019c-12.297-9.837-25.517-18.138-39.657-24.901c-1.436,1.029-3.587,1.537-6.457,1.537 c-1.639,0-4.354-0.41-8.146-1.229c-3.791-0.815-6.712-1.229-8.762-1.229c-24.184,0-41.502,10.965-51.954,32.895 c17.42,1.029,34.021,5.025,49.803,11.989c13.731-13.728,30.332-20.598,49.803-20.598 C470.756,165.481,475.879,165.994,481.003,167.019z"/>
        <path fill="#FFFFFF" d="M554.478,317.35c-0.41-15.371-2.46-30.435-6.148-45.191c-6.148-8.403-12.399-16.908-18.753-25.516 c-8.198-9.837-20.803-14.756-37.813-14.756c-5.329,0-10.657,0.819-15.985,2.459c10.042,13.732,17.522,28.796,22.441,45.191 C523.838,281.996,542.591,294.601,554.478,317.35z"/>
        <path fill="#FFFFFF" d="M524.965,405.889c0-20.487-8.506-36.78-25.517-48.881c-4.099,16.806-11.169,32.391-21.212,46.729 c7.583,12.297,11.375,25.627,11.375,39.965c0,10.043-1.845,19.479-5.534,28.283c12.092-10.247,22.853-21.716,32.28-34.432 c0.409-2.869,2.049-7.993,4.918-15.371C523.735,416.033,524.965,410.61,524.965,405.889z"/>
      </g>
      <g>
        <path fill="#ED1C24" d="M567.082,320.731c0,58.001-20.547,107.496-61.639,148.486c-41.093,40.999-90.537,61.485-148.333,61.485 h-25.208c-17.011,0-28.59-7.268-34.739-21.828c-6.148,14.561-17.729,21.828-34.739,21.828c-10.657,0-19.573-3.536-26.746-10.606 c-7.173-7.071-10.76-16.14-10.76-27.207V148.573c0-10.038,3.74-18.855,11.221-26.438c7.481-7.579,16.243-11.375,26.285-11.375 h94.687c57.796,0,107.24,20.551,148.333,61.639C546.535,213.491,567.082,262.936,567.082,320.731z M316.838,123.364h-54.414 c-14.142,0-22.442,7.276-24.901,21.827c0.615,1.435,0.922,4.104,0.922,7.993c0,13.732,4.816,25.978,14.449,36.737 s21.212,17.063,34.739,18.907c0-23.774,0.922-39.551,2.767-47.343C294.089,145.913,302.901,133.202,316.838,123.364z M287.633,359.467v-62.715c-21.52-2.459-38.224-12.912-50.11-31.357v30.743l0.308,7.993c1.024,13.946,6.251,26.182,15.679,36.737 C262.937,351.432,274.311,357.622,287.633,359.467z M287.633,492.89v-45.807c-21.52-2.655-38.224-13.108-50.11-31.357v31.05 c0,0.82,0.153,2.109,0.461,3.843c0.308,1.742,0.461,3.126,0.461,4.15c0,12.912,4.15,24.552,12.451,34.893 c8.3,10.351,18.599,17.173,30.896,20.444C285.686,505.605,287.633,499.857,287.633,492.89z M491.455,320.731 c0-36.686-13.065-68.248-39.196-94.687c-26.131-26.438-57.643-39.658-94.533-39.658h-57.488v284.982 c7.173-10.648,17.728-15.985,31.665-15.985h25.208c37.096,0,68.761-13.168,94.995-39.505 C478.339,389.552,491.455,357.827,491.455,320.731z M418.596,460.609l-0.308-6.148c-16.19,7.584-33.304,11.888-51.34,12.912 c-9.428,24.594-27.258,39.248-53.492,43.962c4.714,4.509,10.862,6.764,18.446,6.764h25.208c17.421,0,32.075-5.115,43.962-15.372 C413.779,491.66,419.62,477.629,418.596,460.609z M357.726,186.387c-0.41,0-0.82,0-1.229,0H357.726z M481.003,167.019 c-12.297-9.837-25.517-18.138-39.657-24.901c-1.436,1.029-3.587,1.537-6.457,1.537c-1.639,0-4.354-0.41-8.146-1.229 c-3.791-0.815-6.712-1.229-8.762-1.229c-24.184,0-41.502,10.965-51.954,32.895c17.42,1.029,34.021,5.025,49.803,11.989 c13.731-13.728,30.332-20.598,49.803-20.598C470.756,165.481,475.879,165.994,481.003,167.019z M554.478,317.35 c-0.41-15.371-2.46-30.435-6.148-45.191c-6.148-8.403-12.399-16.908-18.753-25.516c-8.198-9.837-20.803-14.756-37.813-14.756 c-5.329,0-10.657,0.819-15.985,2.459c10.042,13.732,17.522,28.796,22.441,45.191C523.838,281.996,542.591,294.601,554.478,317.35z M524.965,405.889c0-20.487-8.506-36.78-25.517-48.881c-4.099,16.806-11.169,32.391-21.212,46.729 c7.583,12.297,11.375,25.627,11.375,39.965c0,10.043-1.845,19.479-5.534,28.283c12.092-10.247,22.853-21.716,32.28-34.432 c0.409-2.869,2.049-7.993,4.918-15.371C523.735,416.033,524.965,410.61,524.965,405.889z"/>
      </g>
    </g>
  </g>
</svg>