<?xml version="1.0" encoding="utf-8"?>
<svg viewBox="0 0 110 110" xmlns="http://www.w3.org/2000/svg">
  <path d="M 105.129 52.93 C 105.129 80.542 82.742 102.93 55.129 102.93 C 27.517 102.93 5.129 80.542 5.129 52.93 C 5.129 25.317 27.517 2.93 55.129 2.93 C 82.748 2.93 105.129 25.317 105.129 52.93 Z" style=""/>
  <path fill="#fff" d="M 29.797 54.61 L 30.013 54.271 L 43.02 33.923 C 43.21 33.625 43.657 33.656 43.801 33.979 C 45.974 38.849 47.849 44.906 46.97 48.677 C 46.595 50.228 45.568 52.329 44.412 54.271 C 44.263 54.553 44.099 54.831 43.924 55.098 C 43.842 55.221 43.703 55.293 43.554 55.293 L 30.177 55.293 C 29.818 55.293 29.607 54.903 29.797 54.61 Z"/>
  <path fill="#fff" d="M 87.774 58.391 L 87.774 61.612 C 87.774 61.797 87.661 61.961 87.496 62.033 C 86.49 62.464 83.043 64.047 81.609 66.04 C 77.952 71.131 75.157 78.41 68.911 78.41 L 42.85 78.41 C 33.614 78.41 26.129 70.899 26.129 61.632 L 26.129 61.334 C 26.129 61.088 26.33 60.887 26.576 60.887 L 41.104 60.887 C 41.392 60.887 41.602 61.154 41.577 61.437 C 41.474 62.382 41.648 63.348 42.095 64.226 C 42.958 65.978 44.746 67.072 46.678 67.072 L 53.869 67.072 L 53.869 61.458 L 46.76 61.458 C 46.395 61.458 46.179 61.036 46.39 60.738 C 46.467 60.62 46.554 60.497 46.647 60.358 C 47.32 59.403 48.28 57.918 49.236 56.228 C 49.888 55.088 50.52 53.87 51.029 52.648 C 51.131 52.427 51.214 52.201 51.296 51.98 C 51.434 51.589 51.578 51.225 51.681 50.86 C 51.784 50.552 51.866 50.228 51.948 49.925 C 52.19 48.887 52.292 47.788 52.292 46.647 C 52.292 46.201 52.272 45.733 52.231 45.286 C 52.21 44.798 52.149 44.31 52.087 43.822 C 52.046 43.391 51.969 42.964 51.887 42.517 C 51.784 41.865 51.64 41.218 51.476 40.565 L 51.419 40.319 C 51.296 39.872 51.193 39.445 51.049 38.998 C 50.643 37.596 50.176 36.23 49.683 34.95 C 49.503 34.442 49.297 33.954 49.092 33.466 C 48.789 32.731 48.481 32.063 48.198 31.432 C 48.054 31.144 47.931 30.882 47.808 30.615 C 47.669 30.312 47.525 30.009 47.381 29.721 C 47.279 29.5 47.16 29.295 47.078 29.089 L 46.2 27.466 C 46.077 27.245 46.282 26.983 46.523 27.05 L 52.02 28.539 L 52.036 28.539 C 52.046 28.539 52.051 28.545 52.056 28.545 L 52.78 28.745 L 53.577 28.971 L 53.869 29.053 L 53.869 25.786 C 53.869 24.209 55.133 22.93 56.695 22.93 C 57.476 22.93 58.185 23.248 58.693 23.767 C 59.202 24.286 59.52 24.995 59.52 25.786 L 59.52 30.635 L 60.106 30.8 C 60.152 30.815 60.198 30.836 60.239 30.866 C 60.383 30.974 60.589 31.134 60.851 31.329 C 61.056 31.493 61.277 31.694 61.544 31.899 C 62.073 32.325 62.705 32.875 63.399 33.507 C 63.584 33.666 63.763 33.831 63.928 33.995 C 64.822 34.827 65.823 35.803 66.779 36.882 C 67.046 37.185 67.308 37.493 67.575 37.817 C 67.842 38.146 68.125 38.469 68.371 38.793 C 68.695 39.224 69.044 39.671 69.347 40.139 C 69.491 40.36 69.656 40.586 69.794 40.807 C 70.185 41.397 70.529 42.009 70.858 42.62 C 70.996 42.903 71.14 43.211 71.263 43.514 C 71.628 44.331 71.916 45.163 72.101 45.995 C 72.157 46.175 72.198 46.37 72.219 46.545 L 72.219 46.586 C 72.281 46.832 72.301 47.094 72.322 47.361 C 72.404 48.214 72.363 49.067 72.178 49.925 C 72.101 50.29 71.998 50.634 71.875 50.999 C 71.751 51.348 71.628 51.713 71.469 52.057 C 71.161 52.771 70.796 53.485 70.364 54.153 C 70.226 54.399 70.061 54.661 69.897 54.908 C 69.717 55.17 69.532 55.416 69.368 55.658 C 69.142 55.966 68.9 56.29 68.654 56.577 C 68.433 56.88 68.207 57.184 67.96 57.451 C 67.616 57.856 67.287 58.242 66.943 58.612 C 66.738 58.853 66.517 59.1 66.291 59.321 C 66.07 59.567 65.844 59.788 65.638 59.993 C 65.294 60.338 65.007 60.605 64.765 60.826 L 64.2 61.345 C 64.118 61.416 64.01 61.458 63.897 61.458 L 59.52 61.458 L 59.52 67.072 L 65.027 67.072 C 66.26 67.072 67.431 66.636 68.376 65.834 C 68.7 65.552 70.113 64.329 71.782 62.485 C 71.839 62.423 71.911 62.377 71.993 62.357 L 87.204 57.959 C 87.486 57.877 87.774 58.093 87.774 58.391 Z"/>
</svg>