<?xml version="1.0" encoding="utf-8"?>
<svg viewBox="0 0 110 110" xmlns="http://www.w3.org/2000/svg">
  <path d="M 104.652 54.308 C 104.652 81.921 82.265 104.308 54.652 104.308 C 27.039 104.308 4.652 81.921 4.652 54.308 C 4.652 26.695 27.039 4.308 54.652 4.308 C 82.271 4.308 104.652 26.695 104.652 54.308 Z" style="fill: rgb(215, 215, 215);"/>
  <path fill="#fff" d="M 29.32 55.988 L 29.536 55.649 L 42.543 35.301 C 42.733 35.003 43.18 35.034 43.324 35.358 C 45.497 40.228 47.372 46.284 46.493 50.055 C 46.118 51.606 45.091 53.707 43.935 55.649 C 43.786 55.932 43.622 56.209 43.447 56.476 C 43.365 56.599 43.226 56.671 43.077 56.671 L 29.7 56.671 C 29.341 56.671 29.13 56.281 29.32 55.988 Z"/>
  <path fill="#fff" d="M 87.297 59.769 L 87.297 62.99 C 87.297 63.175 87.184 63.339 87.019 63.411 C 86.012 63.843 82.565 65.425 81.132 67.418 C 77.475 72.509 74.68 79.788 68.433 79.788 L 42.373 79.788 C 33.137 79.788 25.652 72.278 25.652 63.01 L 25.652 62.712 C 25.652 62.466 25.852 62.266 26.099 62.266 L 40.627 62.266 C 40.914 62.266 41.125 62.533 41.099 62.815 C 40.996 63.76 41.171 64.726 41.618 65.605 C 42.481 67.356 44.269 68.451 46.2 68.451 L 53.392 68.451 L 53.392 62.836 L 46.282 62.836 C 45.918 62.836 45.702 62.414 45.913 62.117 C 45.99 61.998 46.077 61.875 46.169 61.736 C 46.842 60.781 47.803 59.296 48.759 57.606 C 49.411 56.466 50.043 55.248 50.551 54.026 C 50.654 53.805 50.736 53.579 50.818 53.358 C 50.957 52.967 51.101 52.603 51.204 52.238 C 51.307 51.93 51.389 51.606 51.471 51.303 C 51.712 50.265 51.815 49.166 51.815 48.026 C 51.815 47.579 51.795 47.111 51.753 46.664 C 51.733 46.176 51.671 45.688 51.61 45.2 C 51.568 44.769 51.491 44.342 51.409 43.895 C 51.307 43.243 51.163 42.596 50.998 41.943 L 50.942 41.697 C 50.818 41.25 50.716 40.824 50.572 40.377 C 50.166 38.974 49.699 37.608 49.205 36.329 C 49.026 35.82 48.82 35.332 48.615 34.844 C 48.312 34.109 48.003 33.442 47.721 32.81 C 47.577 32.522 47.454 32.26 47.33 31.993 C 47.192 31.69 47.048 31.387 46.904 31.099 C 46.801 30.878 46.683 30.673 46.601 30.467 L 45.723 28.844 C 45.599 28.623 45.805 28.361 46.046 28.428 L 51.543 29.918 L 51.558 29.918 C 51.568 29.918 51.574 29.923 51.579 29.923 L 52.303 30.123 L 53.099 30.349 L 53.392 30.431 L 53.392 27.164 C 53.392 25.587 54.656 24.308 56.218 24.308 C 56.998 24.308 57.707 24.626 58.216 25.145 C 58.724 25.664 59.043 26.373 59.043 27.164 L 59.043 32.014 L 59.629 32.178 C 59.675 32.193 59.721 32.214 59.762 32.245 C 59.906 32.353 60.111 32.512 60.373 32.707 C 60.579 32.871 60.8 33.072 61.067 33.277 C 61.596 33.704 62.228 34.253 62.921 34.885 C 63.106 35.044 63.286 35.209 63.45 35.373 C 64.344 36.205 65.346 37.181 66.302 38.26 C 66.569 38.563 66.831 38.871 67.098 39.195 C 67.365 39.524 67.647 39.847 67.894 40.171 C 68.218 40.603 68.567 41.05 68.87 41.517 C 69.014 41.738 69.178 41.964 69.317 42.185 C 69.707 42.776 70.052 43.387 70.38 43.998 C 70.519 44.281 70.663 44.589 70.786 44.892 C 71.151 45.709 71.439 46.541 71.623 47.373 C 71.68 47.553 71.721 47.748 71.742 47.923 L 71.742 47.964 C 71.803 48.211 71.824 48.473 71.844 48.74 C 71.927 49.592 71.885 50.445 71.701 51.303 C 71.623 51.668 71.521 52.012 71.397 52.377 C 71.274 52.726 71.151 53.091 70.992 53.435 C 70.683 54.149 70.319 54.863 69.887 55.531 C 69.748 55.777 69.584 56.039 69.42 56.286 C 69.24 56.548 69.055 56.795 68.891 57.036 C 68.665 57.344 68.423 57.668 68.177 57.956 C 67.956 58.259 67.73 58.562 67.483 58.829 C 67.139 59.235 66.81 59.62 66.466 59.99 C 66.26 60.231 66.04 60.478 65.813 60.699 C 65.593 60.945 65.367 61.166 65.161 61.372 C 64.817 61.716 64.529 61.983 64.288 62.204 L 63.723 62.723 C 63.641 62.795 63.533 62.836 63.42 62.836 L 59.043 62.836 L 59.043 68.451 L 64.55 68.451 C 65.783 68.451 66.954 68.014 67.899 67.212 C 68.223 66.93 69.635 65.707 71.305 63.863 C 71.361 63.801 71.433 63.755 71.516 63.735 L 86.726 59.337 C 87.009 59.255 87.297 59.471 87.297 59.769 Z"/>
</svg>