<?xml version="1.0" encoding="utf-8"?>
<svg viewBox="0 0 128 128" xmlns="http://www.w3.org/2000/svg">
  <g transform="matrix(0.683781, 0, 0, 0.683781, -121.67865, -147.594208)">
    <path fill="#ED1C24" d="M273.824,382.985c0,4.026-1.461,7.5-4.382,10.421c-2.921,2.918-6.395,4.382-10.42,4.382 c-4.026,0-7.5-1.464-10.421-4.382c-2.921-2.921-4.381-6.395-4.381-10.421s1.44-7.499,4.322-10.421 c2.881-2.917,6.375-4.381,10.48-4.381c4.026,0,7.5,1.464,10.42,4.381C272.363,375.486,273.824,378.959,273.824,382.985z"/>
    <g>
      <path fill="#ED1C24" d="M316.099,279.371c0,12.868-3.967,24.473-11.901,34.815c-7.934,10.345-18.138,17.131-30.611,20.367 c0.079,12.714-4.736,19.065-14.447,19.065c-4.184,0-7.658-1.378-10.42-4.145c-2.763-2.763-4.145-6.233-4.145-10.421v-17.171 c0-3.864,1.457-7.263,4.368-10.184c2.911-2.918,6.299-4.382,10.157-4.382c7.635,0,14.188-2.739,19.661-8.229 c5.47-5.487,8.207-12.059,8.207-19.716c0-7.656-2.74-14.229-8.22-19.717c-5.477-5.486-12.039-8.23-19.687-8.23 c-5.99,0-11.388,1.936-16.197,5.803c-0.789,0.633-4.26,4.186-10.404,10.657c-3.628,3.869-7.016,5.803-10.17,5.803 c-3.862,0-7.329-1.499-10.404-4.5c-3.076-3-4.612-6.395-4.612-10.184c0-9.631,6.395-18.355,19.184-26.17 c11.447-7.026,22.341-10.539,32.683-10.539c15.71,0,29.131,5.585,40.262,16.756C310.533,250.222,316.099,263.662,316.099,279.371z "/>
      <g>
        <path fill="#FFFFFF" d="M229.654,264.687c-2.921-4.421-4.381-9.313-4.381-14.684c0-4.658,1.145-9,3.434-13.026 c-3.605,2.528-7.056,5.763-10.349,9.71c-4.075,4.896-6.111,8.96-6.111,12.197c0,2.605,1.02,4.855,3.059,6.75 c2.04,1.895,4.391,2.842,7.056,2.842C225.342,268.476,227.77,267.215,229.654,264.687z"/>
        <path fill="#FFFFFF" d="M268.021,383.341c0-1.497-0.434-2.882-1.303-4.145c-0.947-0.237-1.934-0.355-2.96-0.355 c-6.316,0-10.224,2.921-11.724,8.763c1.895,2.843,4.421,4.264,7.579,4.264c2.29,0,4.263-0.849,5.921-2.546 C267.192,387.62,268.021,385.63,268.021,383.341z"/>
        <path fill="#FFFFFF" d="M299.757,246.569c-5.131-6.342-11.447-11.238-18.947-14.684h-6.631c-4.658,0-8.921,1.421-12.789,4.263 c-3.868,2.842-6.513,6.474-7.934,10.895c1.816-0.314,3.71-0.474,5.684-0.474c4.816,0,9.434,1.026,13.855,3.079 c4.736-3.473,10.026-5.21,15.868-5.21C292.652,244.438,296.284,245.148,299.757,246.569z"/>
        <path fill="#FFFFFF" d="M307.099,300.386l-0.355-2.128c0.237-1.181,0.355-2.397,0.355-3.661c0-4.804-1.46-9.156-4.381-13.054 c-2.921-3.899-6.71-6.518-11.368-7.856c0.395,1.891,0.592,3.82,0.592,5.789c0,7.64-2.369,14.411-7.105,20.318 c1.421,3.625,2.131,7.522,2.131,11.697c0,4.332-0.869,8.349-2.605,12.049C295.458,317.711,303.037,309.994,307.099,300.386z"/>
      </g>
    </g>
  </g>
</svg>