<?xml version="1.0" encoding="utf-8"?>
<svg viewBox="0 0 873 215" width="873" height="215" xmlns="http://www.w3.org/2000/svg">
  <g transform="matrix(0.392092, 0, 0, 0.392092, -24.775105, 3.173605)">
    <path d="M 601.732 451.008 C 601.732 461.497 597.826 470.649 590.012 478.462 C 582.198 486.275 573.047 490.182 562.558 490.182 C 551.213 490.182 541.794 486.49 534.302 479.104 C 526.81 471.719 523.064 462.354 523.064 451.008 L 523.064 304.91 C 523.064 289.284 517.337 275.798 505.885 264.452 C 494.433 253.107 480.679 247.434 464.624 247.434 C 454.136 247.434 443.807 250.377 433.639 256.264 C 423.471 262.151 416.246 269.91 411.965 279.543 C 413.677 287.891 414.533 296.347 414.533 304.909 L 414.533 451.007 C 414.533 461.496 410.573 470.648 402.653 478.461 C 394.732 486.274 385.528 490.181 375.039 490.181 C 363.693 490.181 354.275 486.489 346.783 479.103 C 339.291 471.718 335.545 462.353 335.545 451.007 L 335.545 304.91 C 335.545 289.284 329.819 275.798 318.366 264.452 C 306.914 253.107 293.267 247.434 277.427 247.434 C 256.877 247.434 248.244 253.264 235.155 265.908 C 220.706 278.313 215.61 292.684 215.61 301.46 C 213.364 316.658 215.455 338.411 215.455 359.817 C 215.455 370.091 215.936 385.451 216.9 405.894 C 217.863 426.337 218.344 441.374 218.344 451.007 C 218.344 462.353 214.652 471.718 207.266 479.103 C 199.881 486.489 190.516 490.181 179.17 490.181 C 167.824 490.181 158.406 486.489 150.914 479.103 C 143.422 471.718 139.676 462.353 139.676 451.007 L 139.676 197.665 C 139.676 186.319 143.422 176.9 150.914 169.408 C 158.406 161.916 167.825 158.17 179.17 158.17 C 199.506 158.17 212.136 167.589 217.059 186.427 C 237.181 174.439 257.517 168.446 278.067 168.446 C 313.816 168.446 344.748 180.541 370.863 204.729 C 400.617 180.541 432.085 168.446 465.265 168.446 C 502.94 168.446 535.103 181.771 561.753 208.422 C 588.404 235.073 601.73 267.236 601.73 304.911 L 601.73 451.008 L 601.732 451.008 Z" style="fill: rgb(251, 84, 78);"/>
    <path d="M205.181,223.031v-30.504c0-5.352-2.783-10.168-8.349-14.449c-5.565-4.281-10.917-6.315-16.055-6.101 l-3.211,0.321c-16.483,11.559-24.724,24.938-24.724,40.137v40.458C165.687,234.912,183.133,224.958,205.181,223.031z" style="fill: rgb(255, 255, 255);"/>
    <path d="M205.181,378.119V313.9c-12.202,1.285-23.868,6.851-35,16.697c-11.56,10.489-17.339,21.728-17.339,33.715 v44.633C165.687,390.75,183.133,380.475,205.181,378.119z" style="fill: rgb(255, 255, 255);"/>
    <path d="M335.225,195.738c-17.768-9.419-36.819-14.128-57.155-14.128c-12.416,0-24.617,1.819-36.604,5.458 c-4.709,5.138-9.419,10.168-14.128,15.092c-5.994,6.85-8.991,13.058-8.991,18.623v29.541c0,1.712,1.392,5.352,4.175,10.917 c13.058-16.697,30.183-25.688,51.375-26.972C286.739,209.438,307.182,196.595,335.225,195.738z" style="fill: rgb(255, 255, 255);"/>
    <path d="M399.443,387.752v-67.108c-8.349-20.764-22.905-31.146-43.669-31.146c-2.354,0-5.245,0.321-8.67,0.963 l1.605,66.467C371.829,359.496,388.74,369.771,399.443,387.752z" style="fill: rgb(255, 255, 255);"/>
    <path d="M397.517,464.173c-13.272-16.055-29.327-24.831-48.164-26.329c0.214,23.118,8.884,34.678,26.009,34.678 C382.211,472.521,389.596,469.738,397.517,464.173z" style="fill: rgb(255, 255, 255);"/>
    <path d="M522.743,195.738c-17.981-9.419-37.14-14.128-57.476-14.128c-20.764,0-36.07,3.96-45.916,11.88 c-9.848,7.921-16.912,21.621-21.193,41.101c1.07,4.067,5.031,12.95,11.881,26.65c13.059-16.697,30.076-25.688,51.055-26.972 C474.151,209.438,494.701,196.595,522.743,195.738z" style="fill: rgb(255, 255, 255);"/>
    <path d="M586.641,387.752v-67.108c-8.134-20.764-22.69-31.146-43.668-31.146c-2.141,0-4.924,0.321-8.349,0.963 l1.605,66.467C559.348,359.496,576.152,369.771,586.641,387.752z" style="fill: rgb(255, 255, 255);"/>
    <path d="M584.715,464.173c-13.272-16.055-29.22-24.831-47.844-26.329c0.215,23.118,8.777,34.678,25.688,34.678 C569.623,472.521,577.008,469.738,584.715,464.173z" style="fill: rgb(255, 255, 255);"/>
  </g>
  <g transform="matrix(0.302198, 0, 0, 0.302198, 192.085083, 36.369377)">
    <path d="M576.369,421.455c0,31.839-24.586,60.273-73.72,85.278c-42.041,21.144-80.985,31.703-116.797,31.703 c-60.693,0-113.688-21.465-158.986-64.394c-45.298-42.929-67.947-94.592-67.947-154.989c0-59.509,23.241-109.987,69.723-151.437 c45.001-39.968,97.541-59.953,157.653-59.953c35.232,0,71.204,9.178,107.915,27.534c44.114,22.205,66.171,49.146,66.171,80.826 c0,23.685-14.815,46.63-44.409,68.834c-25.758,20.429-51.516,40.856-77.273,61.285c-39.684,29.606-67.058,44.409-82.157,44.409 c-14.211,0-27.028-5.255-38.414-15.765c-11.398-10.511-17.098-22.871-17.098-37.082c0-14.804,6.945-27.386,20.873-37.748 l108.803-82.602c-13.89-5.33-28.496-7.994-43.854-7.994c-31.296,0-58.608,10.51-81.923,31.531 c-24.228,21.613-36.317,47.962-36.317,79.049c0,31.383,12.114,57.88,36.354,79.492c23.352,21.021,50.701,31.531,82.047,31.531 c20.095,0,44.557-9.474,73.386-28.422c28.83-18.948,51.799-28.422,68.959-28.422c13.014,0,24.092,4.539,33.258,13.618 C571.78,396.819,576.369,408.058,576.369,421.455z" style="fill: rgb(251, 84, 78);"/>
    <path fill="#FFFFFF" d="M267.723,383.004c-11.842-19.244-17.764-40.265-17.764-63.062c0-12.139,1.776-24.129,5.329-35.972 c-21.316-18.948-31.975-42.485-31.975-70.611c0-5.921,0.728-11.843,2.221-17.764c-31.975,36.119-47.962,77.42-47.962,123.902 c0,17.172,9.869,32.566,29.606,46.186c18.257,12.435,36.379,18.356,54.353,17.764L267.723,383.004z"/>
    <path fill="#FFFFFF" d="M452.91,437.627v-5.773c-20.391,10.659-42.398,15.988-66.021,15.988c-11.238,0-22.18-1.333-32.801-3.997 c-20.095,18.948-44.459,28.422-73.115,28.422c-10.634,0-20.971-1.48-31.013-4.441c39.278,31.68,84.625,47.519,136.041,47.519 c17.418,0,33.085-8.586,46.962-25.758C446.842,472.415,453.503,455.095,452.91,437.627z"/>
    <path fill="#FFFFFF" d="M510.199,162.288c-36.539-24.869-77.223-37.304-122.003-37.304c-17.69,0-33.677,8.586-47.962,25.758 c-14.297,17.171-21.156,34.639-20.552,52.403l0.444,6.217c20.922-11.25,43.312-16.875,67.182-16.875 c11.793,0,23.426,1.48,34.911,4.441C443.141,171.763,472.476,160.216,510.199,162.288z"/>
    <path fill="#FFFFFF" d="M441.809,284.501c0-15.976-3.381-31.346-10.115-46.149l-98.195,74.559 c-9.227,7.094-13.816,15.52-13.816,25.289c0,9.449,3.775,17.813,11.325,25.055c7.549,7.241,16.049,10.868,25.535,10.868 c8.278,0,15.988-2.961,23.093-8.883c13.915-11.521,27.818-23.067,41.745-34.59C434.986,317.031,441.809,301.647,441.809,284.501z"/>
  </g>
  <g transform="matrix(0.269141, 0, 0, 0.269141, 349.003174, 42.444038)">
    <g>
      <path d="M 565.387 508.949 C 565.387 524.229 559.592 537.561 548 548.943 C 536.423 560.326 522.961 566.017 507.615 566.017 C 491.022 566.017 477.236 560.638 466.282 549.878 C 455.315 539.12 449.844 525.476 449.844 508.948 L 449.844 296.108 C 449.844 273.343 441.515 253.696 424.882 237.168 C 408.237 220.64 388.409 212.376 365.397 212.376 C 335.537 212.376 311.188 221.259 294.712 246.831 C 284.349 260.409 278.265 280.654 275.836 296.506 C 272.403 320.774 274.896 344.913 274.896 376.099 C 274.896 391.068 275.753 413.443 277.469 443.225 C 279.185 473.007 280.042 494.915 280.042 508.949 C 280.042 525.476 274.559 539.121 263.605 549.879 C 252.638 560.639 238.864 566.018 222.272 566.018 C 205.679 566.018 191.892 560.639 180.938 549.879 C 169.971 539.121 164.501 525.477 164.501 508.949 L 164.501 139.871 C 164.501 123.343 169.959 109.621 180.873 98.706 C 191.788 87.791 205.51 82.333 222.038 82.333 C 251.976 82.333 270.531 96.054 277.704 123.498 C 307.018 106.034 336.644 97.303 366.582 97.303 C 421.156 97.303 467.934 116.716 506.916 155.541 C 545.897 194.367 565.389 241.223 565.389 296.109 L 565.389 508.949 L 565.387 508.949 Z" style="fill: rgb(251, 84, 78);"/>
      <path fill="#FFFFFF" d="M260.394,176.825v-44.439c0-7.796-4.028-14.813-12.084-21.05c-8.069-6.237-15.97-9.2-23.714-8.888 l-4.184,0.468c-24.182,16.84-36.266,36.331-36.266,58.472v58.94C203.052,194.133,228.468,179.632,260.394,176.825z"/>
      <path fill="#FFFFFF" d="M260.394,402.763v-93.556c-17.984,1.871-34.876,9.979-50.676,24.324 c-17.048,15.281-25.572,31.653-25.572,49.117v65.021C202.74,421.162,228.156,406.193,260.394,402.763z"/>
      <path fill="#FFFFFF" d="M449.845,137.064c-25.819-13.722-53.496-20.583-83.044-20.583c-18.334,0-36.071,2.651-53.171,7.952 c-6.848,7.484-13.683,14.813-20.53,21.986c-8.706,9.979-13.059,19.023-13.059,27.131v43.036c0,2.495,2.014,7.796,6.068,15.904 c18.971-24.324,43.698-37.422,74.169-39.293C379.249,157.022,409.109,138.311,449.845,137.064z"/>
    </g>
    <path fill="#FFFFFF" d="M542.934,416.797V319.03c-11.852-30.25-33.057-45.375-63.619-45.375c-3.118,0-7.172,0.468-12.162,1.403 l2.34,96.83C503.172,375.631,527.652,390.601,542.934,416.797z"/>
    <path fill="#FFFFFF" d="M540.127,528.128c-19.336-23.39-42.568-36.175-69.699-38.358c0.311,33.681,12.785,50.521,37.422,50.521 C518.141,540.29,528.899,536.236,540.127,528.128z"/>
  </g>
  <g transform="matrix(0.356215, 0, 0, 0.356215, 454.00119, -6.465891)">
    <path d="M 518.5 407.382 C 518.5 449.776 503.42 486.113 473.26 516.395 C 443.1 546.677 406.701 561.817 364.065 561.817 C 321.671 561.817 285.334 546.676 255.052 516.395 C 224.77 486.114 209.63 449.776 209.63 407.382 L 209.63 94.516 C 209.63 81.677 213.849 71.078 222.297 62.721 C 230.735 54.363 241.354 50.184 254.143 50.184 C 266.932 50.184 277.54 54.423 285.989 62.902 C 294.438 71.386 298.657 81.924 298.657 94.516 L 298.657 200.985 L 338.992 200.985 C 351.104 200.985 361.521 205.406 370.242 214.249 C 378.963 223.096 383.324 233.568 383.324 245.681 C 383.324 267.246 373.513 280.929 353.891 286.743 C 344.927 289.413 326.638 290.619 299.021 290.377 C 299.021 293.773 298.416 309.273 297.205 336.889 C 296.478 359.66 296.478 377.829 297.205 391.396 C 298.174 411.018 296.195 432.616 307.655 444.288 C 320.494 464.153 340.325 472.428 363.338 472.428 C 381.265 472.428 396.708 466.008 409.668 453.169 C 422.629 440.33 429.109 425.068 429.109 407.384 C 429.109 394.545 433.348 383.886 441.827 375.406 C 450.306 366.927 460.965 362.688 473.805 362.688 C 485.917 362.688 496.395 367.109 505.237 375.952 C 514.078 384.792 518.5 395.27 518.5 407.382 Z" style="fill: rgb(251, 84, 78);"/>
    <g>
      <path fill="#FFFFFF" d="M282.669,224.241v-69.042c-14.051,1.454-27.253,7.757-39.608,18.896 c-13.323,11.87-19.985,24.588-19.985,38.154v45.785C237.853,237.686,257.717,226.421,282.669,224.241z"/>
      <path fill="#FFFFFF" d="M282.669,399.751v-72.675c-14.051,1.453-27.253,7.752-39.608,18.896 c-13.323,11.87-19.985,24.588-19.985,38.154v50.509C237.61,414.044,257.475,402.416,282.669,399.751z"/>
      <path fill="#FFFFFF" d="M429.109,530.93c-31.978-0.969-55.233-15.625-69.769-43.969c-23.74-1.211-43.12-11.265-58.14-30.16 c-4.361,8.963-6.541,18.532-6.541,28.707c0,12.597,2.786,23.014,8.357,31.25c6.541,7.994,13.203,15.988,19.986,23.982 c13.324,4.119,27.011,6.178,41.062,6.178C387.079,546.918,408.76,541.589,429.109,530.93z"/>
      <path fill="#FFFFFF" d="M496.697,387.033c-5.814-6.299-13.445-9.448-22.893-9.448c-13.566,0-22.166,4.966-25.8,14.898 c-1.938,10.417-3.755,20.833-5.451,31.25C467.506,421.796,485.554,409.563,496.697,387.033z"/>
    </g>
  </g>
  <g transform="matrix(0.373185, 0, 0, 0.373185, 601.479248, 16.488882)">
    <path fill="#FFFFFF" d="M 252.056 367.405 C 243.365 351.667 239.019 334.754 239.019 316.666 C 239.019 306.8 247.836 285.444 250.43 276.048 C 234.447 260.779 228.83 253.594 228.83 231.044 C 228.83 226.106 220.403 213.718 221.343 209.015 C 197.383 237.913 184.404 278.612 184.404 315.961 C 184.404 329.82 191.676 342.153 206.25 352.959 C 219.865 363.295 233.606 368.11 247.476 367.405 L 252.056 367.405 Z M 393.604 411.098 L 389.714 400.044 C 374.475 408.5 359.24 413.624 341.672 413.624 C 333.225 413.624 321.997 409.633 314.03 407.753 C 298.801 422.787 283.543 430.677 262.225 430.677 C 254.248 430.677 243.215 433.828 235.718 431.479 C 265.012 457.084 302.179 473.819 340.615 473.819 C 353.975 473.819 370.487 470.988 381.263 456.423 C 391.109 442.562 394.074 424.487 393.604 411.098 Z M 442.014 191.366 C 414.531 171.404 402.466 163.2 341.906 157.688 C 328.338 156.453 311.667 166.856 301.097 180.829 C 290.526 194.806 289.983 208.724 290.463 222.583 L 290.815 227.516 C 306.319 218.59 323.232 214.126 341.555 214.126 C 350.237 214.126 358.938 215.305 367.629 217.65 C 383.357 197.447 413.591 189.726 442.014 191.366 Z M 502.416 314.194 C 502.416 301.039 490.434 283.268 476.027 272.463 C 462.549 262.362 449.072 260.111 435.584 260.581 L 431.405 267.336 C 439.627 282.605 443.737 299.166 443.737 317.019 C 443.737 324.066 443.033 331.114 441.623 338.161 C 459.467 353.665 468.402 373.515 468.402 397.709 C 468.402 401.938 468.05 406.166 467.345 410.394 C 487.547 382.674 502.416 348.49 502.416 314.194 Z M 566.71 210.25 L 566.71 178.89 C 566.71 173.488 568.964 164.536 563.209 159.956 C 557.444 155.375 548.378 151.32 542.975 151.789 L 530.191 157.169 C 513.044 169.384 512.447 183.945 512.447 199.679 L 512.447 241.615 C 525.837 222.817 543.924 212.364 566.71 210.25 Z M 566.71 371.281 L 566.486 292.984 C 553.801 294.393 539.778 306.951 528.503 317.287 C 516.288 328.093 512.448 344.385 512.448 356.835 L 512.448 403.346 C 525.837 384.318 543.924 373.631 566.71 371.281 Z"/>
    <path d="M580.452,444.356c0,11.98-3.876,21.787-11.628,29.422c-7.752,7.634-17.5,11.451-29.246,11.451 c-27.963,0-41.93-20.084-41.93-60.253c0-4.697,0.176-11.275,0.528-19.731c0.353-8.457,0.528-14.329,0.528-17.618 c-14.574,30.068-36.293,54.674-65.186,73.818c-28.894,19.145-59.783,28.718-92.67,28.718c-46.746,0-86.915-17.853-120.506-53.559 c-33.122-35.001-49.682-75.874-49.682-122.62c0-46.511,16.786-86.445,50.387-119.801c33.592-33.352,73.516-50.035,119.802-50.035 c33.121,0,64.07,8.931,92.846,26.779c28.766,17.853,50.436,41.578,65.01,71.176c0-3.289-0.176-9.455-0.528-18.499 c-0.353-9.039-0.528-16.032-0.528-20.965c0-40.874,13.967-61.31,41.93-61.31c11.746,0,21.494,3.876,29.246,11.627 c7.752,7.752,11.628,17.501,11.628,29.246V444.356z M252.056,365.429c-8.691-15.739-13.037-32.651-13.037-50.739 c0-9.866,1.282-19.497,3.876-28.894c-15.983-15.269-23.961-34.179-23.961-56.729c0-4.933,0.47-9.744,1.41-14.446 c-23.96,28.893-35.94,62.015-35.94,99.364c0,13.859,7.272,26.191,21.846,36.998c13.615,10.335,27.356,15.15,41.226,14.446H252.056z M390.884,409.121v-4.581c-15.239,8.456-31.644,12.685-49.212,12.685c-8.447,0-16.649-0.939-24.616-2.818 c-15.229,15.033-33.513,22.551-54.831,22.551c-7.977,0-15.709-1.175-23.206-3.523c29.294,25.604,63.16,38.406,101.596,38.406 c13.36,0,25.429-7.281,36.205-21.846C386.666,436.135,391.354,422.51,390.884,409.121z M430.348,314.689 c0-24.195-8.76-45.043-26.25-62.544c-17.5-17.5-38.358-26.25-62.543-26.25c-24.44,0-45.405,8.75-62.896,26.25 c-17.5,17.501-26.25,38.349-26.25,62.544c0,24.43,8.75,45.336,26.25,62.719c17.491,17.383,38.456,26.074,62.896,26.074 c24.185,0,45.043-8.691,62.543-26.074C421.588,360.025,430.348,339.119,430.348,314.689z M433.871,187.841 c-27.483-19.962-58.139-29.95-91.965-29.95c-13.624,0-25.722,6.993-36.292,20.965c-10.571,13.977-15.631,27.895-15.151,41.754 l0.352,4.933c15.504-8.927,32.417-13.39,50.74-13.39c8.682,0,17.383,1.18,26.074,3.523 C383.357,195.475,405.448,186.201,433.871,187.841z M497.648,315.394c0-13.154-7.214-25.135-21.621-35.94 c-13.478-10.101-26.955-14.916-40.443-14.446l-4.179,0.353c8.222,15.269,12.332,31.829,12.332,49.682 c0,7.048-0.704,14.095-2.114,21.142c17.844,15.504,26.779,35.354,26.779,59.549c0,4.228-0.352,8.456-1.057,12.685 C487.547,380.697,497.648,349.689,497.648,315.394z M566.71,208.277v-31.36c0-5.403-2.878-10.395-8.633-14.975 c-5.765-4.581-11.334-6.636-16.737-6.166h-3.171c-17.147,12.215-25.722,26.196-25.722,41.93v41.931 C525.837,220.845,543.924,210.392,566.71,208.277z M566.71,369.305v-66.948c-12.685,1.41-24.665,7.282-35.94,17.618 c-12.215,10.806-18.322,22.434-18.322,34.883v46.512C525.837,382.342,543.924,371.653,566.71,369.305z" style="fill: rgb(251, 84, 78);"/>
  </g>
</svg>