<?xml version="1.0" encoding="utf-8"?>
<svg viewBox="0 0 250 250" width="250" height="250" xmlns="http://www.w3.org/2000/svg">
  <g transform="matrix(0.392092, 0, 0, 0.392092, -18.932854, 1.014291)">
    <path d="M 601.732 451.008 C 601.732 461.497 597.826 470.649 590.012 478.462 C 582.198 486.275 573.047 490.182 562.558 490.182 C 551.213 490.182 541.794 486.49 534.302 479.104 C 526.81 471.719 523.064 462.354 523.064 451.008 L 523.064 304.91 C 523.064 289.284 517.337 275.798 505.885 264.452 C 494.433 253.107 480.679 247.434 464.624 247.434 C 454.136 247.434 443.807 250.377 433.639 256.264 C 423.471 262.151 416.246 269.91 411.965 279.543 C 413.677 287.891 414.533 296.347 414.533 304.909 L 414.533 451.007 C 414.533 461.496 410.573 470.648 402.653 478.461 C 394.732 486.274 385.528 490.181 375.039 490.181 C 363.693 490.181 354.275 486.489 346.783 479.103 C 339.291 471.718 335.545 462.353 335.545 451.007 L 335.545 304.91 C 335.545 289.284 329.819 275.798 318.366 264.452 C 306.914 253.107 293.267 247.434 277.427 247.434 C 256.877 247.434 248.244 253.264 235.155 265.908 C 220.706 278.313 215.61 292.684 215.61 301.46 C 213.364 316.658 215.455 338.411 215.455 359.817 C 215.455 370.091 215.936 385.451 216.9 405.894 C 217.863 426.337 218.344 441.374 218.344 451.007 C 218.344 462.353 214.652 471.718 207.266 479.103 C 199.881 486.489 190.516 490.181 179.17 490.181 C 167.824 490.181 158.406 486.489 150.914 479.103 C 143.422 471.718 139.676 462.353 139.676 451.007 L 139.676 197.665 C 139.676 186.319 143.422 176.9 150.914 169.408 C 158.406 161.916 167.825 158.17 179.17 158.17 C 199.506 158.17 212.136 167.589 217.059 186.427 C 237.181 174.439 257.517 168.446 278.067 168.446 C 313.816 168.446 344.748 180.541 370.863 204.729 C 400.617 180.541 432.085 168.446 465.265 168.446 C 502.94 168.446 535.103 181.771 561.753 208.422 C 588.404 235.073 601.73 267.236 601.73 304.911 L 601.73 451.008 L 601.732 451.008 Z" style="fill: rgb(255, 76, 70);"/>
    <path d="M205.181,223.031v-30.504c0-5.352-2.783-10.168-8.349-14.449c-5.565-4.281-10.917-6.315-16.055-6.101 l-3.211,0.321c-16.483,11.559-24.724,24.938-24.724,40.137v40.458C165.687,234.912,183.133,224.958,205.181,223.031z" style="fill: rgb(255, 255, 255);"/>
    <path d="M205.181,378.119V313.9c-12.202,1.285-23.868,6.851-35,16.697c-11.56,10.489-17.339,21.728-17.339,33.715 v44.633C165.687,390.75,183.133,380.475,205.181,378.119z" style="fill: rgb(255, 255, 255);"/>
    <path d="M335.225,195.738c-17.768-9.419-36.819-14.128-57.155-14.128c-12.416,0-24.617,1.819-36.604,5.458 c-4.709,5.138-9.419,10.168-14.128,15.092c-5.994,6.85-8.991,13.058-8.991,18.623v29.541c0,1.712,1.392,5.352,4.175,10.917 c13.058-16.697,30.183-25.688,51.375-26.972C286.739,209.438,307.182,196.595,335.225,195.738z" style="fill: rgb(255, 255, 255);"/>
    <path d="M399.443,387.752v-67.108c-8.349-20.764-22.905-31.146-43.669-31.146c-2.354,0-5.245,0.321-8.67,0.963 l1.605,66.467C371.829,359.496,388.74,369.771,399.443,387.752z" style="fill: rgb(255, 255, 255);"/>
    <path d="M397.517,464.173c-13.272-16.055-29.327-24.831-48.164-26.329c0.214,23.118,8.884,34.678,26.009,34.678 C382.211,472.521,389.596,469.738,397.517,464.173z" style="fill: rgb(255, 255, 255);"/>
    <path d="M522.743,195.738c-17.981-9.419-37.14-14.128-57.476-14.128c-20.764,0-36.07,3.96-45.916,11.88 c-9.848,7.921-16.912,21.621-21.193,41.101c1.07,4.067,5.031,12.95,11.881,26.65c13.059-16.697,30.076-25.688,51.055-26.972 C474.151,209.438,494.701,196.595,522.743,195.738z" style="fill: rgb(255, 255, 255);"/>
    <path d="M586.641,387.752v-67.108c-8.134-20.764-22.69-31.146-43.668-31.146c-2.141,0-4.924,0.321-8.349,0.963 l1.605,66.467C559.348,359.496,576.152,369.771,586.641,387.752z" style="fill: rgb(255, 255, 255);"/>
    <path d="M584.715,464.173c-13.272-16.055-29.22-24.831-47.844-26.329c0.215,23.118,8.777,34.678,25.688,34.678 C569.623,472.521,577.008,469.738,584.715,464.173z" style="fill: rgb(255, 255, 255);"/>
  </g>
</svg>