<?xml version="1.0" encoding="utf-8"?>
<svg viewBox="0 0 128 91" width="128" height="91" xmlns="http://www.w3.org/2000/svg">
  <path d="M 114.085 76.71 C 112.278 78.408 110.161 79.257 107.735 79.257 C 105.111 79.257 102.933 78.454 101.2 76.849 C 99.468 75.244 98.601 73.209 98.601 70.742 L 98.601 38.988 C 98.601 35.592 97.277 32.661 94.628 30.195 C 91.98 27.729 88.799 26.496 85.085 26.496 C 82.66 26.496 80.271 27.135 77.919 28.415 C 75.568 29.694 73.897 31.381 72.907 33.475 C 73.303 35.289 73.501 37.127 73.501 38.988 L 73.501 70.742 C 73.501 73.022 72.585 75.011 70.753 76.709 C 68.921 78.408 66.792 79.257 64.366 79.257 C 61.742 79.257 59.564 78.454 57.832 76.849 C 56.099 75.244 55.232 73.208 55.232 70.742 L 55.232 38.988 C 55.232 35.592 53.908 32.661 51.259 30.195 C 48.611 27.729 45.454 26.496 41.791 26.496 C 37.038 26.496 35.042 27.763 32.015 30.511 C 28.673 33.207 27.494 36.331 27.494 38.238 C 26.975 41.541 27.458 46.27 27.458 50.922 C 27.458 53.155 27.57 56.494 27.793 60.937 C 28.015 65.38 28.127 68.649 28.127 70.742 C 28.127 73.208 27.273 75.244 25.564 76.849 C 23.856 78.454 21.691 79.257 19.066 79.257 C 16.442 79.257 14.264 78.454 12.531 76.849 C 10.799 75.244 9.932 73.208 9.932 70.742 L 9.932 15.678 C 9.932 13.212 10.799 11.165 12.531 9.537 C 14.264 7.908 16.443 7.094 19.066 7.094 C 23.77 7.094 26.691 9.141 27.829 13.236 C 32.483 10.63 37.186 9.328 41.939 9.328 C 50.207 9.328 57.361 11.956 63.401 17.214 C 70.282 11.956 77.56 9.328 85.234 9.328 C 93.947 9.328 101.386 12.224 107.549 18.016 C 113.713 23.809 116.795 30.8 116.795 38.988 L 116.795 70.742 C 116.795 73.022 115.892 75.011 114.085 76.71 Z M 25.082 21.192 L 25.082 14.562 C 25.082 13.398 24.439 12.352 23.151 11.421 C 21.864 10.491 20.626 10.049 19.438 10.095 L 18.695 10.165 C 14.883 12.677 12.977 15.585 12.977 18.889 L 12.977 27.682 C 15.948 23.774 19.983 21.61 25.082 21.192 Z M 25.082 54.9 L 25.082 40.942 C 22.26 41.221 19.562 42.431 16.988 44.571 C 14.314 46.851 12.977 49.294 12.977 51.899 L 12.977 61.6 C 15.948 57.645 19.983 55.412 25.082 54.9 Z M 55.158 15.26 C 51.049 13.212 46.643 12.189 41.94 12.189 C 39.068 12.189 36.246 12.584 33.474 13.375 C 32.385 14.492 31.296 15.585 30.207 16.655 C 28.82 18.144 28.127 19.494 28.127 20.703 L 28.127 27.124 C 28.127 27.496 28.449 28.287 29.093 29.497 C 32.113 25.868 36.073 23.913 40.975 23.634 C 43.945 18.237 48.673 15.446 55.158 15.26 Z M 70.011 56.994 L 70.011 42.408 C 68.08 37.895 64.713 35.638 59.911 35.638 C 59.366 35.638 58.698 35.708 57.906 35.848 L 58.277 50.294 C 63.624 50.852 67.535 53.086 70.011 56.994 Z M 69.565 73.604 C 66.496 70.114 62.782 68.207 58.426 67.881 C 58.475 72.906 60.481 75.419 64.441 75.419 C 66.025 75.418 67.733 74.813 69.565 73.604 Z M 98.527 15.26 C 94.368 13.212 89.937 12.189 85.234 12.189 C 80.432 12.189 76.892 13.05 74.615 14.771 C 72.337 16.493 70.703 19.47 69.713 23.704 C 69.961 24.588 70.877 26.519 72.461 29.497 C 75.481 25.868 79.417 23.913 84.269 23.634 C 87.289 18.237 92.042 15.446 98.527 15.26 Z M 113.305 56.994 L 113.305 42.408 C 111.424 37.895 108.057 35.638 103.206 35.638 C 102.711 35.638 102.067 35.708 101.275 35.848 L 101.646 50.294 C 106.993 50.852 110.879 53.086 113.305 56.994 Z M 112.86 73.604 C 109.79 70.114 106.102 68.207 101.795 67.881 C 101.844 72.906 103.824 75.419 107.736 75.419 C 109.369 75.418 111.077 74.813 112.86 73.604 Z" style="fill: rgb(255, 255, 255);"/>
</svg>