<?xml version="1.0" encoding="utf-8"?>
<svg viewBox="0 0 750 200" xmlns="http://www.w3.org/2000/svg">
  <g transform="matrix(0.377435, 0, 0, 0.377435, 532.419067, -18.743269)">
    <path d="M506.957,504.238c0,11.307-4.488,21.338-13.445,30.104c-8.957,8.765-19.18,13.157-30.669,13.157 c-11.499,0-22.067-5.429-31.715-16.265c-40.211-44.959-63.995-71.715-71.351-80.251c-34.006-39.204-55.613-66.401-64.8-81.631 V505.13c0,12.275-4.047,22.402-12.131,30.382c-8.094,7.988-18.26,11.987-30.506,11.987c-12.256,0-22.421-3.979-30.506-11.931 c-8.084-7.959-12.131-18.049-12.131-30.285V107.058c0-12.223,4.047-22.369,12.131-30.444c8.085-8.07,18.25-12.112,30.506-12.112 c12.247,0,22.412,4.028,30.506,12.084c8.084,8.061,12.131,18.183,12.131,30.381v207.147c8.497-12.429,32.856-33.604,73.058-63.525 c41.123-30.607,66.748-45.917,76.856-45.917c11.488,0,21.481,4.488,29.979,13.464c8.506,8.976,12.755,19.218,12.755,30.727 c0,13.119-5.755,24.052-17.263,32.798l-82.647,62.586l108.675,132.995C503.428,485.547,506.957,494.542,506.957,504.238z" style="fill: rgb(255, 76, 70);"/>
    <path d="M280.477,106.276c-0.23-18.413-9.609-27.62-28.137-27.62c-18.758,0-28.137,9.441-28.137,28.31v31.763 C238.146,119.396,256.914,108.578,280.477,106.276z" fill="#FFFFFF"/>
    <path d="M280.477,259.22v-65.597c-13.272,1.381-25.74,7.37-37.401,17.953 c-12.582,11.278-18.873,23.362-18.873,36.25v43.501C238.146,271.993,256.914,261.291,280.477,259.22z" fill="#FFFFFF"/>
    <path d="M280.477,425.973v-69.049c-13.272,1.381-25.74,7.365-37.401,17.953 c-12.582,11.277-18.873,23.361-18.873,36.25v47.989C237.925,439.553,256.693,428.504,280.477,425.973z" fill="#FFFFFF"/>
    <path d="M456.734,274.655c-11.988-17.651-26.162-26.483-42.533-26.483c-7.145,0-14.174,1.956-21.088,5.869 l-5.188,1.035c-11.758,8.517-29.384,21.525-52.899,39.013c4.613-0.916,9.341-1.381,14.193-1.381 c20.993,0,38.303,8.018,51.921,24.042L456.734,274.655z" fill="#FFFFFF"/>
    <path d="M447.23,439.092l-63.18-76.989c-15.651,10.357-23.477,25.202-23.477,44.536 c0,13.359,7.48,29.24,22.441,47.645c12.198,13.579,24.513,27.273,36.941,41.084C419.266,471.891,428.356,453.132,447.23,439.092z" fill="#FFFFFF"/>
  </g>
  <g transform="matrix(0.302198, 0, 0, 0.302198, 251.350983, 25.28731)">
    <path d="M 576.369 421.455 C 576.369 453.294 551.783 481.728 502.649 506.733 C 460.608 527.877 421.664 538.436 385.852 538.436 C 325.159 538.436 272.164 516.971 226.866 474.042 C 181.568 431.113 158.919 379.45 158.919 319.053 C 158.919 259.544 182.16 209.066 228.642 167.616 C 273.643 127.648 326.183 107.663 386.295 107.663 C 421.527 107.663 457.499 116.841 494.21 135.197 C 538.324 157.402 560.381 184.343 560.381 216.023 C 560.381 239.708 545.566 262.653 515.972 284.857 C 490.214 305.286 464.456 325.713 438.699 346.142 C 399.015 375.748 374.433 397.258 349.901 400.857 C 335.84 402.92 319.028 395.288 307.642 384.778 C 296.244 374.267 291.568 356.32 291.218 342.113 C 290.728 322.25 307.975 310.318 321.903 299.956 L 430.706 217.354 C 416.816 212.024 402.21 209.36 386.852 209.36 C 355.556 209.36 328.244 219.87 304.929 240.891 C 280.701 262.504 268.612 288.853 268.612 319.94 C 268.612 351.323 280.726 377.82 304.966 399.432 C 328.318 420.453 355.667 430.963 387.013 430.963 C 407.108 430.963 431.57 421.489 460.399 402.541 C 489.229 383.593 512.198 374.119 529.358 374.119 C 542.372 374.119 553.45 378.658 562.616 387.737 C 571.78 396.819 576.369 408.058 576.369 421.455 Z" style="fill: rgb(255, 76, 70);"/>
    <path d="M267.723,383.004c-11.842-19.244-17.764-40.265-17.764-63.062c0-12.139,1.776-24.129,5.329-35.972 c-21.316-18.948-31.975-42.485-31.975-70.611c0-5.921,0.728-11.843,2.221-17.764c-31.975,36.119-47.962,77.42-47.962,123.902 c0,17.172,9.869,32.566,29.606,46.186c18.257,12.435,36.379,18.356,54.353,17.764L267.723,383.004z" fill="#FFFFFF"/>
    <path d="M452.91,437.627v-5.773c-20.391,10.659-42.398,15.988-66.021,15.988c-11.238,0-22.18-1.333-32.801-3.997 c-20.095,18.948-44.459,28.422-73.115,28.422c-10.634,0-20.971-1.48-31.013-4.441c39.278,31.68,84.625,47.519,136.041,47.519 c17.418,0,33.085-8.586,46.962-25.758C446.842,472.415,453.503,455.095,452.91,437.627z" fill="#FFFFFF"/>
    <path d="M510.199,162.288c-36.539-24.869-77.223-37.304-122.003-37.304c-17.69,0-33.677,8.586-47.962,25.758 c-14.297,17.171-21.156,34.639-20.552,52.403l0.444,6.217c20.922-11.25,43.312-16.875,67.182-16.875 c11.793,0,23.426,1.48,34.911,4.441C443.141,171.763,472.476,160.216,510.199,162.288z" fill="#FFFFFF"/>
    <path d="M 441.809 284.501 C 441.809 268.525 438.428 253.155 431.694 238.352 L 340.95 306.42 C 331.723 313.514 325.901 326.345 325.901 336.114 C 325.901 345.563 326.478 352.995 334.028 360.237 C 341.577 367.478 349.575 371.933 359.061 371.933 C 367.339 371.933 378.346 368.596 385.451 362.674 C 399.366 351.153 410.768 343.723 424.695 332.2 C 438.3 318.581 441.809 301.647 441.809 284.501 Z" fill="#FFFFFF"/>
  </g>
  <g transform="matrix(0.326445, 0, 0, 0.326445, -52.255383, 18.686327)">
    <path d="M553.231,408.457c0,29.246-20.659,55.271-61.979,78.078c-36.222,20.123-70.297,30.185-102.226,30.185 c-53.93,0-100.213-20.525-138.85-61.577c-38.1-40.246-57.15-87.469-57.15-141.667c0-53.394,19.318-99.342,57.955-137.844 c38.636-38.497,84.651-57.754,138.045-57.754c28.709,0,61.442,9.396,98.201,28.173c42.661,21.47,63.991,45.076,63.991,70.833 c0,12.61-4.427,23.812-13.281,33.606c-8.854,9.793-19.586,14.689-32.197,14.689c-11.805,0-28.037-8.854-48.697-26.563 c-20.66-17.708-43.064-26.563-67.211-26.563c-28.173,0-52.32,10.062-72.444,30.185c-20.123,20.123-30.185,44.271-30.185,72.443 c0,27.904,10.062,51.918,30.185,72.041c20.124,20.124,44.271,30.185,72.444,30.185c17.44,0,38.569-8.586,63.387-25.757 c24.819-17.172,44.607-25.758,59.364-25.758c11.537,0,21.196,4.226,28.978,12.678C549.342,386.522,553.231,396.651,553.231,408.457 z" style="fill: rgb(255, 76, 70);"/>
    <g>
      <path d="M286.801,373.04c-10.196-18.245-15.294-37.697-15.294-58.357c0-11.537,1.61-22.672,4.83-33.404 c-18.513-17.708-27.77-39.575-27.77-65.602c0-5.635,0.537-11.135,1.61-16.501c-27.636,33.539-41.454,71.772-41.454,114.702 c0,15.83,8.317,29.917,24.953,42.259c15.831,11.806,31.661,17.439,47.491,16.903H286.801z M446.98,423.348l-0.402-5.231 c-17.708,9.659-36.623,14.488-56.747,14.488c-9.659,0-19.184-1.073-28.575-3.22c-17.44,17.44-38.502,26.16-63.187,26.16 c-9.123,0-17.977-1.342-26.563-4.024c33.807,29.246,72.98,43.868,117.52,43.868c15.294,0,29.112-8.451,41.454-25.354 C442.018,454.472,447.518,438.91,446.98,423.348z M496.082,168.186c-31.66-23.075-66.809-34.612-105.446-34.612 c-15.83,0-29.85,8.116-42.058,24.349c-12.208,16.238-18.043,32.264-17.507,48.094l0.402,5.635 c17.977-10.196,37.429-15.294,58.357-15.294c10.196,0,20.257,1.348,30.184,4.025C437.992,177.04,463.348,166.313,496.082,168.186z " fill="#FFFFFF"/>
    </g>
  </g>
  <g transform="matrix(0.383967, 0, 0, 0.383967, 71.168983, -26.332777)">
    <path d="M515.019,515.945c0,11.11-4.157,20.803-12.461,29.079c-8.313,8.275-18.157,12.413-29.542,12.413 c-12.063,0-22.087-3.91-30.051-11.733c-7.974-7.822-11.951-17.732-11.951-29.759V361.2c0-16.542-6.037-30.827-18.092-42.853 c-12.063-12.018-26.442-18.025-43.126-18.025c-22.777,0-43.41,15.645-61.898,46.934v168.689c0,12.026-3.987,21.937-11.951,29.759 c-7.973,7.823-17.987,11.733-30.052,11.733c-12.063,0-22.087-3.91-30.051-11.733c-7.974-7.822-11.951-17.732-11.951-29.759V124.49 c0-12.017,3.977-21.988,11.951-29.929c7.964-7.936,17.988-11.904,30.051-11.904c12.064,0,22.079,3.968,30.052,11.904 c7.964,7.94,11.951,17.912,11.951,29.929v110.192c17.43-12.017,38.365-18.025,62.814-18.025c39.839,0,73.849,14.114,102.03,42.343 c28.181,28.228,42.276,62.295,42.276,102.2V515.945z" style="fill: rgb(255, 76, 70);"/>
    <path fill="#FFFFFF" d="M293.613,123.81c-0.227-18.139-9.476-27.208-27.719-27.208c-18.488,0-27.718,9.301-27.718,27.889v31.289 C251.922,136.733,270.401,126.077,293.613,123.81z"/>
    <path fill="#FFFFFF" d="M293.613,274.475v-64.619c-13.075,1.36-25.347,7.265-36.845,17.685 c-12.395,11.11-18.592,23.013-18.592,35.71v42.853C251.922,287.058,270.401,276.515,293.613,274.475z"/>
    <path fill="#FFFFFF" d="M293.613,438.743v-68.021c-13.075,1.36-25.347,7.266-36.845,17.686 c-12.395,11.109-18.592,23.014-18.592,35.711v47.273C251.695,452.13,270.175,441.246,293.613,438.743z"/>
    <path fill="#FFFFFF" d="M431.014,245.566c-18.771-9.976-38.895-14.964-60.377-14.964c-13.113,0-25.885,1.927-38.318,5.781 c-5.205,5.442-10.297,10.77-15.267,15.985c-6.103,7.265-9.154,13.83-9.154,19.726v31.289c0,1.823,1.351,5.668,4.071,11.563 c13.793-17.686,31.875-27.208,54.265-28.568C379.8,260.077,401.396,246.473,431.014,245.566z"/>
    <path fill="#FFFFFF" d="M499.033,448.945v-71.08c-8.842-21.984-24.27-32.99-46.253-32.99c-2.504,0-5.564,0.34-9.183,1.021l1.7,70.4 C470.002,419.018,487.924,429.9,499.033,448.945z"/>
    <path fill="#FFFFFF" d="M496.993,529.89c-14.067-17.005-31.072-26.301-51.015-27.888c0.217,24.486,9.399,36.73,27.548,36.73 C481.008,538.732,488.831,535.795,496.993,529.89z"/>
  </g>
  <g transform="matrix(0.326445, 0, 0, 0.326445, 392.720673, 19.129747)">
    <path d="M553.231,408.457c0,29.246-20.659,55.271-61.979,78.078c-36.222,20.123-70.297,30.185-102.226,30.185 c-53.93,0-100.213-20.525-138.85-61.577c-38.1-40.246-57.15-87.469-57.15-141.667c0-53.394,19.318-99.342,57.955-137.844 c38.636-38.497,84.651-57.754,138.045-57.754c28.709,0,61.442,9.396,98.201,28.173c42.661,21.47,63.991,45.076,63.991,70.833 c0,12.61-4.427,23.812-13.281,33.606c-8.854,9.793-19.586,14.689-32.197,14.689c-11.805,0-28.037-8.854-48.697-26.563 c-20.66-17.708-43.064-26.563-67.211-26.563c-28.173,0-52.32,10.062-72.444,30.185c-20.123,20.123-30.185,44.271-30.185,72.443 c0,27.904,10.062,51.918,30.185,72.041c20.124,20.124,44.271,30.185,72.444,30.185c17.44,0,38.569-8.586,63.387-25.757 c24.819-17.172,44.607-25.758,59.364-25.758c11.537,0,21.196,4.226,28.978,12.678C549.342,386.522,553.231,396.651,553.231,408.457 z" style="fill: rgb(255, 76, 70);"/>
    <g>
      <path d="M286.801,373.04c-10.196-18.245-15.294-37.697-15.294-58.357c0-11.537,1.61-22.672,4.83-33.404 c-18.513-17.708-27.77-39.575-27.77-65.602c0-5.635,0.537-11.135,1.61-16.501c-27.636,33.539-41.454,71.772-41.454,114.702 c0,15.83,8.317,29.917,24.953,42.259c15.831,11.806,31.661,17.439,47.491,16.903H286.801z M446.98,423.348l-0.402-5.231 c-17.708,9.659-36.623,14.488-56.747,14.488c-9.659,0-19.184-1.073-28.575-3.22c-17.44,17.44-38.502,26.16-63.187,26.16 c-9.123,0-17.977-1.342-26.563-4.024c33.807,29.246,72.98,43.868,117.52,43.868c15.294,0,29.112-8.451,41.454-25.354 C442.018,454.472,447.518,438.91,446.98,423.348z M496.082,168.186c-31.66-23.075-66.809-34.612-105.446-34.612 c-15.83,0-29.85,8.116-42.058,24.349c-12.208,16.238-18.043,32.264-17.507,48.094l0.402,5.635 c17.977-10.196,37.429-15.294,58.357-15.294c10.196,0,20.257,1.348,30.184,4.025C437.992,177.04,463.348,166.313,496.082,168.186z " fill="#FFFFFF"/>
    </g>
  </g>
</svg>