<?xml version="1.0" encoding="utf-8"?>
<svg viewBox="0 0 218 218" xmlns="http://www.w3.org/2000/svg">
  <g transform="matrix(1.25, 0, 0, 1.25, -422.787598, -1122.08667)" style="opacity: 0.8;">
    <ellipse style="fill: rgb(128, 233, 96); stroke-width: 5px; stroke: rgb(79, 176, 27);" cx="423.816" cy="985.192" rx="80" ry="79.743"/>
    <g transform="matrix(0.396078, 0, 0, 0.393284, 240.746658, 846.440186)" style="">
      <path fill="#ED1C24" d="M642.457,354.2c0,4.185-1.382,7.654-4.145,10.421c-2.763,2.763-6.236,4.145-10.421,4.145h-88.458 c-4.184,0-7.638-1.382-10.361-4.145c-2.724-2.767-4.085-6.236-4.085-10.421c0-4.188,1.361-7.657,4.085-10.421 c2.724-2.766,6.178-4.145,10.361-4.145h88.458c4.185,0,7.658,1.379,10.421,4.145C641.075,346.543,642.457,350.013,642.457,354.2z"/>
      <g>
        <path fill="#FFFFFF" d="M542.157,363.91c-0.789-7.029-4.184-12.434-10.184-16.223c-0.71,1.733-1.065,3.71-1.065,5.921 c0,4.575,1.895,8.01,5.684,10.302H542.157z"/>
        <path fill="#FFFFFF" d="M598.169,363.91c-0.553-4.578-2.605-8.881-6.157-12.907c-3.869-4.342-8.053-6.513-12.553-6.513h-14.921 c6.632,4.813,10.342,11.289,11.132,19.42H598.169z"/>
        <path fill="#FFFFFF" d="M637.483,354.2c0-6.474-3.22-9.71-9.654-9.71h-10.832c6.592,4.813,10.243,11.289,10.95,19.42 C634.306,363.832,637.483,360.595,637.483,354.2z"/>
      </g>
    </g>
    <g transform="matrix(0.191965, 0, 0, 0.191965, 336.236145, 921.83783)">
      <path fill="#FFFFFF" d="M249.536,286.674c-26.011-6.076-43.575-21.717-52.689-46.922c-1.781,10.802-2.672,24.53-2.672,41.183 c0,31.506,1.997,53.223,6.001,65.151c7.558,22.054,23.789,34.544,48.694,37.47L249.536,286.674z M249.536,507.442 c-23.47-2.476-41.924-13.39-55.361-32.744v25.993c0,18.453,9.339,27.68,28.027,27.68 C237.692,528.371,246.807,521.396,249.536,507.442z M386.925,378.492h-80.557c-19.86-0.226-34.076,4.557-42.655,14.347v41.014 h87.673C354.322,409.773,366.165,391.319,386.925,378.492z M414.605,105.738c-16.878-5.401-34.216-8.102-51.985-8.102 c-12.152,0-24.089,1.35-35.782,4.051c-8.327,7.652-16.663,15.308-24.98,22.955c-8.561,9.677-12.828,19.804-12.828,30.381 c0,6.531,1.35,13.84,4.051,21.942c18.903-14.853,40.508-22.837,64.813-23.967C367.796,126.667,386.7,110.918,414.605,105.738z M530.382,284.986c0-29.706-2.231-51.31-6.714-64.813c-8.083-23.629-24.099-35.444-48.084-35.444 c-8.965,0-18.492,2.025-28.572,6.076c15.688,17.554,24.877,38.145,27.568,61.774C498.332,254.385,516.936,265.182,530.382,284.986z M530.382,422.713c0-17.553-4.688-32.406-14.084-44.559c-10.071-12.827-23.705-20.254-40.931-22.279v75.952 c24.596,3.601,42.938,16.316,55.015,38.146V422.713z"/>
      <path fill="#ED1C24" d="M544.56,498.666c0,11.927-3.919,21.829-11.759,29.705c-7.857,7.877-17.703,11.815-29.593,11.815 c-28.019,0-42.027-19.917-42.027-59.749c0-4.051,0-9.79,0-17.217c0-7.426,0-12.602,0-15.527H263.704c0,3.15,0,8.607,0,16.372 c0,7.764,0,13.784,0,18.06c0,40.058-13.896,60.087-41.68,60.087c-11.787,0-21.567-3.938-29.34-11.815 C184.892,522.521,181,512.618,181,500.691V265.745c0-50.18,17.778-93.051,53.336-128.613 c35.557-35.558,78.315-53.336,128.275-53.336c50.185,0,93.056,17.778,128.613,53.336c35.557,35.562,53.335,78.433,53.335,128.613 V498.666z M249.526,286.674c-26.012-6.076-43.574-21.717-52.688-46.922c-1.782,10.802-2.673,24.53-2.673,41.183 c0,31.506,2.007,53.223,6.001,65.151c7.558,22.054,23.799,34.544,48.704,37.47L249.526,286.674z M249.526,507.442 c-23.461-2.476-41.915-13.39-55.361-32.744v25.993c0,18.453,9.34,27.68,28.027,27.68 C237.683,528.371,246.798,521.396,249.526,507.442z M461.181,364.651v-98.907c0-27.901-10.184-51.362-30.55-70.383 c-20.367-19.016-44.503-28.524-72.408-28.524c-26.555,0-48.947,9.79-67.176,29.369c-18.229,19.579-27.343,42.758-27.343,69.539 v98.907H461.181z M386.916,378.492h-80.557c-19.86-0.226-34.076,4.557-42.655,14.347v41.014h87.674 C354.313,409.773,366.155,391.319,386.916,378.492z M414.597,105.738c-16.879-5.401-34.207-8.102-51.985-8.102 c-12.152,0-24.08,1.35-35.782,4.051c-8.327,7.652-16.653,15.308-24.98,22.955c-8.552,9.677-12.828,19.804-12.828,30.381 c0,6.531,1.351,13.84,4.051,21.942c18.904-14.853,40.508-22.837,64.813-23.967C367.787,126.667,386.691,110.918,414.597,105.738z M530.382,284.986c0-29.706-2.231-51.31-6.714-64.813c-8.083-23.629-24.099-35.444-48.084-35.444 c-8.965,0-18.492,2.025-28.581,6.076c15.696,17.554,24.886,38.145,27.567,61.774C498.332,254.385,516.936,265.182,530.382,284.986z M530.382,422.713c0-17.553-4.688-32.406-14.084-44.559c-10.071-12.827-23.714-20.254-40.939-22.279v75.952 c24.604,3.601,42.946,16.316,55.023,38.146V422.713z"/>
    </g>
    <g transform="matrix(0, 0.393284, -0.396078, 0, 612.231873, 756.345398)" style="">
      <path fill="#ED1C24" d="M642.457,354.2c0,4.185-1.382,7.654-4.145,10.421c-2.763,2.763-6.236,4.145-10.421,4.145h-88.458 c-4.184,0-7.638-1.382-10.361-4.145c-2.724-2.767-4.085-6.236-4.085-10.421c0-4.188,1.361-7.657,4.085-10.421 c2.724-2.766,6.178-4.145,10.361-4.145h88.458c4.185,0,7.658,1.379,10.421,4.145C641.075,346.543,642.457,350.013,642.457,354.2z"/>
      <g>
        <path fill="#FFFFFF" d="M542.157,363.91c-0.789-7.029-4.184-12.434-10.184-16.223c-0.71,1.733-1.065,3.71-1.065,5.921 c0,4.575,1.895,8.01,5.684,10.302H542.157z"/>
        <path fill="#FFFFFF" d="M598.169,363.91c-0.553-4.578-2.605-8.881-6.157-12.907c-3.869-4.342-8.053-6.513-12.553-6.513h-14.921 c6.632,4.813,10.342,11.289,11.132,19.42H598.169z"/>
        <path fill="#FFFFFF" d="M637.483,354.2c0-6.474-3.22-9.71-9.654-9.71h-10.832c6.592,4.813,10.243,11.289,10.95,19.42 C634.306,363.832,637.483,360.595,637.483,354.2z"/>
      </g>
    </g>
  </g>
</svg>