<?xml version="1.0" encoding="utf-8"?>
<svg viewBox="0 0 218 218" xmlns="http://www.w3.org/2000/svg">
  <g transform="matrix(1.25, 0, 0, 1.25, -477.445221, -1223.461792)" style="opacity: 0.8;">
    <ellipse style="fill: rgb(128, 233, 96); stroke-width: 5px; stroke: rgb(79, 176, 27);" cx="467.815" cy="1065.856" rx="80" ry="79.743"/>
    <g transform="matrix(0.252917, 0, 0, 0.252917, 380.726318, 984.281433)">
      <path fill="#FFFFFF" d="M258.056,298.517v-71.411c-21.757-1.723-38.99-11.52-51.7-29.404v42.653 c0,14.863,4.955,27.95,14.864,39.259S243.407,297.224,258.056,298.517z M258.056,456.524v-60.102 c-21.757-1.723-38.99-11.524-51.7-29.404v69.149C216.911,449.954,234.145,456.74,258.056,456.524z M375.673,113.043h-43.945 c-15.51,0-28.973,4.847-40.391,14.541c-11.417,9.693-17.987,22.084-19.71,37.159h73.672 C347.238,142.986,357.362,125.757,375.673,113.043z M359.517,265.558c-19.818-0.861-31.882-1.292-36.19-1.292 c-31.451,0-47.176,9.047-47.176,27.142c0,17.233,8.617,25.85,25.85,25.85C334.744,317.258,353.916,300.024,359.517,265.558z M375.35,469.772h-66.24c-1.508,21.542-11.74,38.774-30.697,51.7h51.377c10.986,0,21.219-6.032,30.697-18.096 C369.533,492.391,374.488,481.189,375.35,469.772z M503.307,218.059c-15.51-23.696-32.42-35.544-50.73-35.544 c-3.877,0-7.862,0.436-11.955,1.293c7.324,9.263,10.986,19.71,10.986,31.343c0,11.417-2.263,20.896-6.786,28.435 c1.938,5.816,2.908,12.602,2.908,20.357c0,17.018-6.678,33.604-20.034,49.761c21.542-5.816,39.367-17.61,53.478-35.382 C495.282,260.549,502.66,240.462,503.307,218.059z M516.878,333.737c-9.048-17.233-19.818-30.266-32.313-39.099 c-11.632,12.279-25.312,21.542-41.036,27.789l6.462,4.523c7.54-3.877,16.803-5.816,27.789-5.816 C488.981,321.135,502.014,325.336,516.878,333.737z M507.185,452.324c0-17.88-8.832-33.82-26.497-47.823 c-2.153,14.218-7.862,26.927-17.125,38.129c2.585,5.386,3.877,12.925,3.877,22.618c0,16.372-6.462,32.637-19.387,48.792 c14.217-5.17,32.205-17.664,53.961-37.481C505.461,466.003,507.185,457.925,507.185,452.324z"/>
      <path fill="#ED1C24" d="M546.282,393.516c0,38.99-13.786,72.271-41.36,99.845c-27.572,27.573-60.854,41.36-99.845,41.36H232.206 c-10.34,0-19.441-3.932-27.304-11.795c-7.862-7.862-11.794-16.963-11.794-27.304V138.893c0-10.34,3.932-19.437,11.794-27.304 c7.863-7.862,16.964-11.794,27.304-11.794h168.994c31.666,0,58.809,11.363,81.428,34.09c22.619,22.731,33.928,49.815,33.928,81.266 c0,25.635-7.647,48.684-22.941,69.148c15.294,10.771,28.004,26.928,38.129,48.469C541.436,353.447,546.282,373.697,546.282,393.516 z M258.056,298.517v-71.411c-21.757-1.723-38.99-11.52-51.7-29.404v42.653c0,14.863,4.955,27.95,14.864,39.259 S243.407,297.224,258.056,298.517z M258.056,456.524v-60.102c-21.757-1.723-38.99-11.524-51.7-29.404v69.149 C216.911,449.954,234.145,456.74,258.056,456.524z M438.359,215.15c0-9.904-3.662-18.58-10.986-26.012 c-7.324-7.432-16.049-11.147-26.174-11.147H271.304v87.566c8.401-9.693,25.204-14.54,50.407-14.54 c6.678,0,16.695,0.377,30.051,1.131c13.355,0.754,23.265,1.131,29.728,1.131C419.402,253.279,438.359,240.569,438.359,215.15z M468.409,388.021c0-26.927-14.756-46.853-44.268-59.777L302,330.506c-12.925,0.215-23.158-4.523-30.697-14.218v140.236h133.773 c18.956,0,34.358-6.786,46.206-20.356C462.701,423.242,468.409,407.194,468.409,388.021z M375.673,113.043h-43.945 c-15.51,0-28.973,4.847-40.391,14.541c-11.417,9.693-17.987,22.084-19.71,37.159h73.672 C347.238,142.986,357.362,125.757,375.673,113.043z M359.517,265.558c-19.818-0.861-31.882-1.292-36.19-1.292 c-31.451,0-47.176,9.047-47.176,27.142c0,17.233,8.617,25.85,25.85,25.85C334.744,317.258,353.916,300.024,359.517,265.558z M375.35,469.772h-66.24c-1.508,21.542-11.74,38.774-30.697,51.7h51.377c10.986,0,21.219-6.032,30.697-18.096 C369.533,492.391,374.488,481.189,375.35,469.772z M503.307,218.059c-15.51-23.696-32.42-35.544-50.73-35.544 c-3.877,0-7.862,0.436-11.955,1.293c7.324,9.263,10.986,19.71,10.986,31.343c0,11.417-2.263,20.896-6.786,28.435 c1.938,5.816,2.908,12.602,2.908,20.357c0,17.018-6.678,33.604-20.034,49.761c21.542-5.816,39.367-17.61,53.478-35.382 C495.282,260.549,502.66,240.462,503.307,218.059z M516.878,333.737c-9.048-17.233-19.818-30.266-32.313-39.099 c-11.632,12.279-25.312,21.542-41.036,27.789l6.462,4.523c7.54-3.877,16.803-5.816,27.789-5.816 C488.981,321.135,502.014,325.336,516.878,333.737z M507.185,452.324c0-17.88-8.832-33.82-26.497-47.823 c-2.153,14.218-7.862,26.927-17.125,38.129c2.585,5.386,3.877,12.925,3.877,22.618c0,16.372-6.462,32.637-19.387,48.792 c14.217-5.17,32.205-17.664,53.961-37.481C505.461,466.003,507.185,457.925,507.185,452.324z"/>
    </g>
  </g>
</svg>