<?xml version="1.0" encoding="utf-8"?>
<svg viewBox="0 0 218 218" xmlns="http://www.w3.org/2000/svg">
  <g transform="matrix(1.25, 0, 0, 1.25, -1097.540894, -1141.529053)" style="opacity: 0.8;">
    <ellipse style="stroke-width: 5px; stroke: rgb(219, 206, 29); fill: rgb(241, 241, 84);" cx="963.646" cy="1000.743" rx="80" ry="79.743"/>
    <g transform="matrix(0.257348, 0, 0, 0.257348, 868.046631, 921.386658)">
      <g>
        <path fill="#ED1C24" d="M525.773,440.979c-15.205,23.747-35.932,42.807-62.178,57.18c-26.246,14.372-53.638,21.559-82.175,21.559 c-53.742,0-98.423-22.704-134.042-68.114c-32.703-42.077-49.055-90.716-49.055-145.916c0-54.159,16.768-102.485,50.305-144.979 c36.244-45.618,80.717-68.427,133.417-68.427c25.621,0,56.137,10.207,91.548,30.621c39.369,22.705,59.055,45.826,59.055,69.364 c0,10.207-4.114,18.956-12.342,26.246c-8.229,7.295-17.55,10.936-27.965,10.936c-8.749,0-18.539-5.312-29.371-15.935 c-17.497-17.497-28.017-27.6-31.558-30.308c-14.79-10.624-31.245-15.935-49.368-15.935c-32.287,0-58.845,15.519-79.675,46.556 c-18.331,27.496-27.496,58.225-27.496,92.174c0,34.161,9.27,64.886,27.808,92.174c20.831,31.037,47.389,46.556,79.676,46.556 c17.289,0,33.432-5.521,48.43-16.561c2.916-2.083,13.956-12.29,33.12-30.62c11.457-11.04,21.56-16.561,30.309-16.561 c9.789,0,18.694,3.958,26.714,11.874c8.021,7.915,12.03,16.769,12.03,26.559C532.961,426.086,530.564,433.272,525.773,440.979z"/>
      </g>
      <g>
        <path fill="#FFFFFF" d="M270.812,363.179h-10.936c-17.081,0.833-32.495-6.665-46.243-22.497 c3.125,21.039,8.957,41.036,17.498,59.992l1.25-0.313c0.833,0,6.77,4.843,17.81,14.528c11.04,9.687,21.872,14.529,32.496,14.529 c7.707,0,15.831-1.962,24.371-5.901C290.601,407.131,278.519,387.021,270.812,363.179z M263.313,177.269 c0-6.874,1.042-13.54,3.125-19.997c-15.414,16.873-27.809,36.453-37.182,58.741c1.041,0.833,1.562,9.169,1.562,24.997 c0,22.08,10.728,37.182,32.183,45.306c2.499-23.326,8.957-44.681,19.372-64.053C269.666,209.764,263.313,194.767,263.313,177.269z M420.478,449.416c-12.29,5.207-24.893,7.812-37.807,7.812c-2.708,10.623-10.416,19.788-23.122,27.496 c-11.457,6.874-23.018,10.519-34.683,10.936c18.331,7.707,37.286,11.561,56.867,11.561c9.374,0,18.435-5.52,27.183-16.56 c8.124-10.415,12.186-20.518,12.186-30.309C421.102,457.645,420.894,453.999,420.478,449.416z M383.295,104.78 c-9.582,0-18.591,5.42-27.027,16.248c-8.436,10.832-12.655,21.143-12.655,30.933c0,2.295,0.209,5.833,0.625,10.624 c11.04-4.579,22.185-7.187,33.433-7.812c8.749-24.163,26.142-38.323,52.18-42.494C414.437,107.279,398.918,104.78,383.295,104.78z M505.343,170.083c-8.185-4.578-17.323-6.874-27.4-6.874c-13.444,0-25.204,4.27-35.281,12.811 c7.977,8.124,16.065,16.355,24.25,24.684c11.344,11.044,20.37,16.56,27.097,16.56c6.718,0,12.75-2.547,18.105-7.655 c5.354-5.103,8.037-10.884,8.037-17.341C520.15,183.102,515.211,175.707,505.343,170.083z M511.87,401.767 c-5.521-4.895-11.718-7.343-18.591-7.343c-6.458,0-12.082,2.292-16.873,6.875c11.665,12.289,17.498,26.975,17.498,44.056 c0,5.415-0.729,10.728-2.188,15.935c18.955-18.33,28.434-32.287,28.434-41.868C520.15,412.547,517.39,406.662,511.87,401.767z"/>
      </g>
    </g>
  </g>
</svg>