<?xml version="1.0" encoding="utf-8"?>
<svg viewBox="0 0 218 218" xmlns="http://www.w3.org/2000/svg">
  <g transform="matrix(1.25, 0, 0, 1.25, -1306.990356, -1714.304687)" style="opacity: 0.8;">
    <ellipse style="stroke-width: 5px; fill: rgb(255, 181, 85); stroke: rgb(233, 97, 0);" cx="1132.071" cy="1459.195" rx="80" ry="79.743"/>
    <g transform="matrix(0.247653, 0, 0, 0.247653, 1042.429321, 1379.129028)">
      <g>
        <path fill="#FFFFFF" d="M414.258,490.601h-0.308H414.258z"/>
        <path fill="#FFFFFF" d="M316.838,123.364h-54.414c-14.142,0-22.442,7.276-24.901,21.827c0.615,1.435,0.922,4.104,0.922,7.993 c0,13.732,4.816,25.978,14.449,36.737s21.212,17.063,34.739,18.907c0-23.774,0.922-39.551,2.767-47.343 C294.089,145.913,302.901,133.202,316.838,123.364z"/>
        <path fill="#FFFFFF" d="M287.633,359.467v-62.715c-21.52-2.459-38.224-12.912-50.11-31.357v30.743l0.308,7.993 c1.024,13.946,6.251,26.182,15.679,36.737C262.937,351.432,274.311,357.622,287.633,359.467z"/>
        <path fill="#FFFFFF" d="M287.633,492.89v-45.807c-21.52-2.655-38.224-13.108-50.11-31.357v31.05c0,0.82,0.153,2.109,0.461,3.843 c0.308,1.742,0.461,3.126,0.461,4.15c0,12.912,4.15,24.552,12.451,34.893c8.3,10.351,18.599,17.173,30.896,20.444 C285.686,505.605,287.633,499.857,287.633,492.89z"/>
        <path fill="#FFFFFF" d="M418.596,460.609l-0.308-6.148c-16.19,7.584-33.304,11.888-51.34,12.912 c-9.428,24.594-27.258,39.248-53.492,43.962c4.714,4.509,10.862,6.764,18.446,6.764h25.208c17.421,0,32.075-5.115,43.962-15.372 C413.779,491.66,419.62,477.629,418.596,460.609z"/>
        <path fill="#FFFFFF" d="M357.726,186.387c-0.41,0-0.82,0-1.229,0H357.726z"/>
        <path fill="#FFFFFF" d="M481.003,167.019c-12.297-9.837-25.517-18.138-39.657-24.901c-1.436,1.029-3.587,1.537-6.457,1.537 c-1.639,0-4.354-0.41-8.146-1.229c-3.791-0.815-6.712-1.229-8.762-1.229c-24.184,0-41.502,10.965-51.954,32.895 c17.42,1.029,34.021,5.025,49.803,11.989c13.731-13.728,30.332-20.598,49.803-20.598 C470.756,165.481,475.879,165.994,481.003,167.019z"/>
        <path fill="#FFFFFF" d="M554.478,317.35c-0.41-15.371-2.46-30.435-6.148-45.191c-6.148-8.403-12.399-16.908-18.753-25.516 c-8.198-9.837-20.803-14.756-37.813-14.756c-5.329,0-10.657,0.819-15.985,2.459c10.042,13.732,17.522,28.796,22.441,45.191 C523.838,281.996,542.591,294.601,554.478,317.35z"/>
        <path fill="#FFFFFF" d="M524.965,405.889c0-20.487-8.506-36.78-25.517-48.881c-4.099,16.806-11.169,32.391-21.212,46.729 c7.583,12.297,11.375,25.627,11.375,39.965c0,10.043-1.845,19.479-5.534,28.283c12.092-10.247,22.853-21.716,32.28-34.432 c0.409-2.869,2.049-7.993,4.918-15.371C523.735,416.033,524.965,410.61,524.965,405.889z"/>
      </g>
      <g>
        <path fill="#ED1C24" d="M567.082,320.731c0,58.001-20.547,107.496-61.639,148.486c-41.093,40.999-90.537,61.485-148.333,61.485 h-25.208c-17.011,0-28.59-7.268-34.739-21.828c-6.148,14.561-17.729,21.828-34.739,21.828c-10.657,0-19.573-3.536-26.746-10.606 c-7.173-7.071-10.76-16.14-10.76-27.207V148.573c0-10.038,3.74-18.855,11.221-26.438c7.481-7.579,16.243-11.375,26.285-11.375 h94.687c57.796,0,107.24,20.551,148.333,61.639C546.535,213.491,567.082,262.936,567.082,320.731z M316.838,123.364h-54.414 c-14.142,0-22.442,7.276-24.901,21.827c0.615,1.435,0.922,4.104,0.922,7.993c0,13.732,4.816,25.978,14.449,36.737 s21.212,17.063,34.739,18.907c0-23.774,0.922-39.551,2.767-47.343C294.089,145.913,302.901,133.202,316.838,123.364z M287.633,359.467v-62.715c-21.52-2.459-38.224-12.912-50.11-31.357v30.743l0.308,7.993c1.024,13.946,6.251,26.182,15.679,36.737 C262.937,351.432,274.311,357.622,287.633,359.467z M287.633,492.89v-45.807c-21.52-2.655-38.224-13.108-50.11-31.357v31.05 c0,0.82,0.153,2.109,0.461,3.843c0.308,1.742,0.461,3.126,0.461,4.15c0,12.912,4.15,24.552,12.451,34.893 c8.3,10.351,18.599,17.173,30.896,20.444C285.686,505.605,287.633,499.857,287.633,492.89z M491.455,320.731 c0-36.686-13.065-68.248-39.196-94.687c-26.131-26.438-57.643-39.658-94.533-39.658h-57.488v284.982 c7.173-10.648,17.728-15.985,31.665-15.985h25.208c37.096,0,68.761-13.168,94.995-39.505 C478.339,389.552,491.455,357.827,491.455,320.731z M418.596,460.609l-0.308-6.148c-16.19,7.584-33.304,11.888-51.34,12.912 c-9.428,24.594-27.258,39.248-53.492,43.962c4.714,4.509,10.862,6.764,18.446,6.764h25.208c17.421,0,32.075-5.115,43.962-15.372 C413.779,491.66,419.62,477.629,418.596,460.609z M357.726,186.387c-0.41,0-0.82,0-1.229,0H357.726z M481.003,167.019 c-12.297-9.837-25.517-18.138-39.657-24.901c-1.436,1.029-3.587,1.537-6.457,1.537c-1.639,0-4.354-0.41-8.146-1.229 c-3.791-0.815-6.712-1.229-8.762-1.229c-24.184,0-41.502,10.965-51.954,32.895c17.42,1.029,34.021,5.025,49.803,11.989 c13.731-13.728,30.332-20.598,49.803-20.598C470.756,165.481,475.879,165.994,481.003,167.019z M554.478,317.35 c-0.41-15.371-2.46-30.435-6.148-45.191c-6.148-8.403-12.399-16.908-18.753-25.516c-8.198-9.837-20.803-14.756-37.813-14.756 c-5.329,0-10.657,0.819-15.985,2.459c10.042,13.732,17.522,28.796,22.441,45.191C523.838,281.996,542.591,294.601,554.478,317.35z M524.965,405.889c0-20.487-8.506-36.78-25.517-48.881c-4.099,16.806-11.169,32.391-21.212,46.729 c7.583,12.297,11.375,25.627,11.375,39.965c0,10.043-1.845,19.479-5.534,28.283c12.092-10.247,22.853-21.716,32.28-34.432 c0.409-2.869,2.049-7.993,4.918-15.371C523.735,416.033,524.965,410.61,524.965,405.889z"/>
      </g>
    </g>
  </g>
</svg>