<?xml version="1.0" encoding="utf-8"?>
<svg viewBox="0 0 218 218" xmlns="http://www.w3.org/2000/svg">
  <g transform="matrix(1.25, 0, 0, 1.25, 469.022888, -1211.766113)" style="opacity: 0.8;">
    <ellipse style="stroke-width: 5px; fill: rgb(255, 181, 85); stroke: rgb(233, 97, 0);" cx="-289.327" cy="1056.69" rx="80" ry="79.743"/>
    <g transform="matrix(0.209406, 0, 0, 0.209406, -361.725189, 994.812805)">
      <path fill="#ED1C24" d="M566.991,100.374c0,12.956-4.286,23.703-12.839,32.255c-8.573,8.558-19.335,12.829-32.296,12.829H278.162 v99.697h126.362c12.972,0,23.743,4.276,32.316,12.829c8.573,8.558,12.859,19.304,12.859,32.255 c0,12.956-4.286,23.702-12.859,32.255s-19.345,12.828-32.316,12.828H278.162v176.304c0,11.974-4.449,22.48-13.328,31.521 c-8.878,9.042-19.406,13.562-31.573,13.562c-11.923,0-22.328-4.52-31.207-13.562c-8.888-9.041-13.328-19.548-13.328-31.521V100.374 c0-11.969,4.449-22.48,13.378-31.522c8.919-9.036,19.365-13.562,31.339-13.562h288.462c12.951,0,23.692,4.276,32.255,12.829 C562.715,76.677,566.991,87.423,566.991,100.374z"/>
      <path fill="#FFFFFF" d="M262.768,519.323v-89.068c-24.874-2.933-44.544-14.783-59.022-35.554c-0.244,3.421-0.611,10.874-1.1,22.358 c-0.234,9.774-0.356,17.594-0.356,23.458c0,54.003,19.559,80.271,58.666,78.806H262.768z"/>
      <path fill="#FFFFFF" d="M262.768,227.195c-24.466-2.688-44.015-14.295-58.646-34.821v51.315c0,13.44,6.557,26.268,19.671,38.486 c12.391,11.241,25.372,17.96,38.975,20.16V227.195z"/>
      <path fill="#FFFFFF" d="M340.473,70.318h-81.004c-7.331,11.49-10.996,24.069-10.996,37.753c0,16.372,4.999,31.033,15.028,43.984 c0-15.634,4.632-23.458,13.928-23.458c1.7,0,5.804,0.311,12.279,0.917c6.465,0.611,12.146,0.916,17.044,0.916 C308.707,105.266,319.947,85.224,340.473,70.318z"/>
      <path fill="#FFFFFF" d="M434.306,290.239c0-20.032-9.988-30.056-29.964-30.056c-49.686,0-77.817,20.037-84.395,60.112h84.395 C424.317,320.295,434.306,310.276,434.306,290.239z"/>
      <path fill="#FFFFFF" d="M551.597,100.374c0-20.032-9.988-30.056-29.944-30.056c-18.021,0-33.843,5.559-47.486,16.677 c-13.633,11.124-21.422,25.601-23.366,43.434h70.853C541.608,130.43,551.597,120.411,551.597,100.374z"/>
    </g>
  </g>
</svg>